<?xml version="1.0" encoding="UTF-8" standalone="no"?>
<!-- Created with Inkscape (http://www.inkscape.org/) -->

<svg
   xmlns:dc="http://purl.org/dc/elements/1.1/"
   xmlns:cc="http://creativecommons.org/ns#"
   xmlns:rdf="http://www.w3.org/1999/02/22-rdf-syntax-ns#"
   xmlns:svg="http://www.w3.org/2000/svg"
   xmlns="http://www.w3.org/2000/svg"
   xmlns:sodipodi="http://sodipodi.sourceforge.net/DTD/sodipodi-0.dtd"
   xmlns:inkscape="http://www.inkscape.org/namespaces/inkscape"
   inkscape:export-ydpi="90"
   inkscape:export-xdpi="90"
   inkscape:export-filename="/home/alecive/Scrivania/iCubAttempt1.jpg.png"
   sodipodi:docname="iCub_World_solidcolor.svg"
   inkscape:version="0.91+devel r"
   version="1.1"
   id="svg36198"
   height="512"
   width="512"
   viewBox="0 0 512 512">
  <defs
     id="defs36200">
    <linearGradient
       id="linearGradient4132">
      <stop
         offset="0"
         style="stop-color:#9ccaf4;stop-opacity:1"
         id="stop4134" />
      <stop
         offset="1"
         style="stop-color:#b2cade;stop-opacity:0.12156863"
         id="stop4136" />
    </linearGradient>
  </defs>
  <sodipodi:namedview
     id="base"
     pagecolor="#ffffff"
     bordercolor="#666666"
     borderopacity="1.0"
     inkscape:pageopacity="0.0"
     inkscape:pageshadow="2"
     inkscape:zoom="0.78593946"
     inkscape:cx="289.62319"
     inkscape:cy="134.13947"
     inkscape:document-units="px"
     inkscape:current-layer="layer1"
     showgrid="false"
     fit-margin-top="0"
     fit-margin-left="0"
     fit-margin-right="0"
     fit-margin-bottom="0"
     inkscape:window-width="1855"
     inkscape:window-height="1056"
     inkscape:window-x="65"
     inkscape:window-y="24"
     inkscape:window-maximized="1"
     showguides="false" />
  <metadata
     id="metadata36203">
    <rdf:RDF>
      <cc:Work
         rdf:about="">
        <dc:format>image/svg+xml</dc:format>
        <dc:type
           rdf:resource="http://purl.org/dc/dcmitype/StillImage" />
        <dc:title />
      </cc:Work>
    </rdf:RDF>
  </metadata>
  <g
     inkscape:label="Livello 1"
     inkscape:groupmode="layer"
     id="layer1"
     transform="translate(-280.33287,-101.27761)">
    <path
       id="path36102"
       style="fill:#fafaf5;fill-opacity:1"
       d="m 515.04786,136.73854 c -20.70056,-0.002 -40.21107,1.07662 -55.92615,3.46957 -95.8538,14.59569 -169.62216,106.7967 -174.71761,218.33504 -2.4892,54.48874 16.11173,107.40468 51.05224,145.14366 19.89936,21.49317 34.70394,29.54231 66.25226,35.93483 l 21.56089,4.37826 25.11307,-8.09566 c 14.5428,-4.65848 34.33243,-8.72965 47.08702,-9.74784 54.29465,-8.48905 38.32113,-7.28638 54.76963,-6.19566 -5.63759,3.48424 -1.40353,5.35837 24.61742,10.57393 13.56003,2.71795 30.56526,6.67902 37.83483,8.83914 7.26957,2.16012 25.93591,7.41494 41.46962,11.73045 15.5337,4.31548 30.40329,9.12091 33.04352,10.65653 6.80958,3.96057 29.59306,3.63445 43.86527,-0.66087 26.44975,-7.96018 36.86107,-22.8078 41.30439,-58.73485 1.45495,-11.76408 5.11268,-27.74432 8.17827,-35.52178 6.57744,-16.68709 5.63178,-22.27393 -6.19565,-36.43048 C 759.31414,412.40784 757.95643,406.36098 761.96556,377.29535 780.24415,244.77842 748.17784,184.84186 641.02628,151.27768 611.86054,142.14179 560.5891,136.74299 515.04786,136.73854 Z m 2.23044,265.42206 c 10.63608,0 11.64726,10.90573 8.34349,14.37393 -2.93741,3.08362 -9.023,4.83207 -13.1348,1.98261 -6.80659,-4.71695 -4.58073,-16.35654 4.79131,-16.35654 z"
       inkscape:connector-curvature="0"
       sodipodi:nodetypes="sssscccccsssssssssssssss" />
    <path
       inkscape:connector-curvature="0"
       id="path9531"
       style="opacity:1;fill:#3192c9;fill-opacity:1;stroke:none;stroke-width:1;stroke-linecap:butt;stroke-linejoin:miter;stroke-miterlimit:4;stroke-dasharray:none;stroke-dashoffset:0;stroke-opacity:1;marker:none"
       d="m 515.04786,136.73854 c -20.70056,-0.002 -40.21107,1.07662 -55.92615,3.46957 -95.8538,14.59569 -169.62216,106.7967 -174.71761,218.33504 -2.4892,54.48874 16.11173,107.40468 51.05224,145.14365 19.89936,21.4932 34.70394,29.5423 66.25226,35.9348 l 21.56089,4.3783 25.11307,-8.0957 c 14.5428,-4.6584 34.33243,-8.7296 47.08702,-9.7478 28.70554,-2.2915 28.66525,-2.2149 28.66525,-30.31743 v -23.37829 l 11.31741,-7.76522 c 6.21242,-4.27425 16.07657,-13.01516 21.97394,-19.41307 42.45878,-46.06232 33.09173,-110.39792 -19.24785,-132.09147 l -13.87828,-5.78261 -0.74348,-84.26097 -0.74348,-80.95662 c -0.0289,-4.10038 -5.40462,-5.38088 -7.76523,-5.45218 z m 2.23044,265.42206 c 10.63608,0 11.64726,10.90573 8.34349,14.37393 -2.93741,3.08362 -9.023,4.83207 -13.1348,1.98261 -6.80659,-4.71695 -4.58073,-16.35654 4.79131,-16.35654 z"
       sodipodi:nodetypes="csscccccsccccccccsccs" />
    <path
       style="fill:#fafaf5;fill-opacity:1"
       d="m 234.71484,35.460938 c 2.36061,0.0713 7.73673,1.352744 7.76563,5.453124 l 0.49609,53.875 c -4.23094,-2.34644 -7.96346,-4.259381 -8.77148,-5.238281 3.94072,-0.89575 -2.74764,-4.423515 -5.2461,-4.291015 -0.35689,0.0189 -0.62574,0.130056 -0.76757,0.316406 -19.0346,4.41727 -26.58775,21.663698 -36.00391,35.949218 -13.8801,5.93697 -13.36035,31.43037 2.14648,23.28711 4.15027,6.87675 -2.89548,17.70657 9.19336,8.71484 9.75085,-12.24171 1.71114,-32.0445 18.30469,-39.76367 1.20862,6.00208 -15.31907,28.42793 3.97461,24.74414 17.44171,0.62435 -12.6687,1.64324 -4.18555,12.21289 -8.81376,-4.96107 -4.23183,13.55171 -15.73632,9.24414 -9.96677,5.14322 -16.5097,-2.39813 -14.22657,-10.64843 -7.84049,4.33929 2.4583,16.59044 -11.15234,17.32617 -3.04886,10.27106 -28.11342,8.721 -13.85547,19.17969 6.3302,15.5641 -23.59484,0.9788 -15.10156,19.65625 7.26645,18.46916 22.48764,-6.11067 28.66601,-10.86133 11.54805,-8.49811 28.49398,13.49815 19.78907,15.68359 10.95922,-1.96318 8.37198,-12.36184 -1.00782,-16.45117 -5.20495,-12.80657 16.48955,6.29395 15.28711,12.71484 7.64991,13.58992 4.50641,-13.92483 12.29102,-1.74804 -0.90886,12.84472 31.30688,3.02212 15.92187,19.39257 -13.22769,2.52756 -26.25644,-3.21441 -37.64453,0.47657 -10.59928,-0.0891 -10.04929,-10.84666 -13.9082,-13.53711 -13.48244,1.03915 -30.15566,0.92477 -39.18164,11.25781 -9.76047,12.70447 -23.83165,30.45762 -13.19336,46.67969 10.64575,24.03923 37.04127,1.24828 52.2168,15.44531 4.51065,5.91952 -3.91384,12.9533 6.17187,19.36523 3.79516,13.65856 -4.31511,26.62686 5.00586,39.6836 4.81982,12.27915 7.83818,30.66579 25.77734,19.44531 18.98612,-10.83929 13.92576,-30.8154 29.5918,-41.88281 -12.39589,-22.75905 15.16451,-32.73279 22.04102,-51.20899 -15.02379,2.08664 -28.42485,-12.13652 -32.05469,-26.43945 -6.31133,-6.94724 -4.66723,-17.18379 2.38281,-4.13281 9.69016,8.90789 9.89116,35.32221 27.81641,21.72461 5.31882,-2.11057 16.60503,-8.0762 19.00195,-13.54688 13.89584,28.67856 8.2417,66.44918 -19.42578,96.46485 -5.89737,6.39791 -15.76219,15.13981 -21.97461,19.41406 l -11.31641,7.76562 v 23.37696 c 0,16.76709 0.009,23.50262 -6.07617,26.69531 26.39131,-4.34245 18.70814,-3.46558 32.17969,-2.57227 -5.63759,3.48424 -1.40376,5.35866 24.61719,10.57422 13.56003,2.71795 30.56634,6.67777 37.83594,8.83789 7.26955,2.16012 25.93504,7.41496 41.46874,11.73047 15.53372,4.31548 30.40274,9.12063 33.04297,10.65625 6.80958,3.96057 29.59303,3.63517 43.86524,-0.66015 26.44975,-7.96018 36.86137,-22.80733 41.30469,-58.73438 1.45495,-11.76408 5.11214,-27.74402 8.17773,-35.52148 6.57744,-16.68709 5.63212,-22.27509 -6.19531,-36.43164 C 478.9807,311.1298 477.62368,305.08321 481.63281,276.01758 499.9114,143.50065 467.84492,83.56418 360.69336,50 331.52762,40.86411 280.25608,35.465387 234.71484,35.460938 Z M 162.38477,145.66016 c -9.08508,5.87593 4.67336,18.13965 -0.0254,23.92187 -5.9072,9.76423 21.95198,-0.68628 7.07226,-8.47656 -1.01981,-6.438 -8.15232,-14.2385 -7.04687,-15.44531 z m -6.19922,11.65625 c -13.13477,3.52297 -2.98218,21.71506 1.66992,4.58398 0.26151,-0.9932 0.61669,-4.61718 -1.66992,-4.58398 z m 80.39453,29.31445 c 2.18861,-0.0835 5.16055,1.52048 7.23633,2.41211 l 0.0957,10.96094 c -9.81212,0.29384 -20.20407,-2.22176 -8.70117,-13.01563 0.40104,-0.2284 0.86407,-0.33815 1.36914,-0.35742 z m -46.75,14 c -7.66024,4.68188 5.29692,8.27192 0,0 z m 85.61133,28.04687 c 0.10535,-0.0161 0.22331,-0.0148 0.35547,0.004 1.18394,0.16734 3.46004,1.7828 7.15234,5.7793 2.68321,1.07996 5.16648,2.04875 7.43359,2.75781 h 0.002 c 0.82882,1.15476 1.61959,2.33223 2.37304,3.5293 -0.73076,-0.33733 -1.5445,-0.66166 -2.49609,-0.96289 -8.69944,5.97766 -18.08632,-10.60834 -14.82031,-11.10743 z m -38.4961,72.20508 c 10.63608,0 11.64752,10.9068 8.34375,14.375 -2.93741,3.08362 -9.02296,4.83188 -13.13476,1.98242 -6.80659,-4.71695 -4.58103,-16.35742 4.79101,-16.35742 z m 39.19531,17.58399 c -16.81853,0.41156 -14.5852,41.571 -2.86132,17.21875 1.11181,-5.28445 5.57068,-12.26288 2.86132,-17.21875 z"
       transform="translate(280.33287,101.27761)"
       id="path4307"
       inkscape:connector-curvature="0"
       sodipodi:nodetypes="ccccccccccccccccccccccccccccccccccccccccsccccccccscsscccccccccccccccccccccccsccsccc" />
    <path
       style="fill:#fafaf5;fill-opacity:1"
       d="M 149.15625 55.693359 C 147.40251 55.712059 145.79793 55.875951 144.59961 56.144531 L 142.26953 56.144531 C 126.19389 62.256321 111.05141 70.628543 97.625 81.761719 C 96.505989 82.646793 95.396599 83.542381 94.296875 84.449219 C 95.329568 87.14524 92.147339 87.315583 90.519531 87.648438 C 90.252435 87.879401 89.98855 88.113452 89.722656 88.345703 C 90.050775 88.80649 91.327328 89.574948 94.265625 90.980469 C 101.43991 96.340719 86.679713 99.416269 95.564453 104.22656 C 85.324503 109.23936 97.230173 130.44463 104.83594 135.75195 C 117.35413 145.74974 110.36603 114.58991 124.33398 112.96875 C 131.92391 104.74841 145.25362 99.462809 154.7207 91.193359 C 145.46859 90.480779 140.05031 85.013216 148.8125 81.628906 C 164.93903 97.306096 152.86445 74.214421 143.9375 70.556641 C 152.5754 67.949871 160.97783 69.848016 159.7793 63.085938 C 167.19608 57.938167 156.75579 55.612459 149.15625 55.693359 z M 88.542969 89.550781 C 81.581139 95.053881 101.77849 96.090281 88.542969 89.550781 z M 70.292969 107.61328 C 68.43533 109.70293 66.619397 111.82864 64.841797 113.98633 C 66.121182 114.92994 67.39916 115.97012 68.330078 116.75781 C 73.010445 112.77621 72.549324 110.01935 70.292969 107.61328 z M 150.79297 111.00977 C 143.88959 118.54969 134.7833 109.031 134.63477 115.51172 C 135.88589 117.46988 140.90208 131.44265 151.88086 121.12891 C 157.77319 118.77213 155.44292 112.8287 150.79297 111.00977 z M 62.123047 117.35352 C 59.689295 120.42602 57.33318 123.55927 55.060547 126.75391 C 59.128415 130.25642 61.584674 132.36432 59.560547 125.84375 C 54.264557 122.17525 73.792889 131.72715 63.667969 119.80469 C 63.07557 118.89922 62.565412 118.08707 62.123047 117.35352 z M 50.765625 133.00586 C 46.390956 139.60358 42.355027 146.42931 38.664062 153.44141 C 37.720552 159.63682 35.656874 165.30269 32.646484 169.39648 C 32.581115 168.44422 32.417578 167.56031 32.1875 166.72461 C 23.479584 186.07851 17.323731 206.602 13.962891 227.54883 C 22.11407 227.33834 30.232925 231.06337 32.513672 239.33594 C 26.490952 221.98368 44.164653 208.47208 53.970703 196.12695 C 55.967363 190.22628 67.830627 185.1597 63.748047 193.00195 C 70.703437 192.76378 81.242559 180.85561 68.886719 186.35156 C 68.711889 175.49221 58.061042 178.58501 54.607422 180.12695 C 61.008432 170.48871 93.885081 175.77383 80.119141 160.01953 C 69.452301 155.91917 70.324336 131.98622 59.535156 145.31641 C 59.939609 141.65761 55.628082 136.44856 50.765625 133.00586 z M 84.013672 170.48242 C 71.794292 178.38713 82.130637 186.27931 91.085938 182.72266 C 89.247428 177.95332 84.096502 174.94637 84.013672 170.48242 z M 30.472656 244.26367 C 29.181226 248.35106 54.704803 252.50743 37.095703 245.95898 L 34.472656 245.08398 L 30.472656 244.26367 z M 16.910156 247.25586 C 15.303198 248.77208 13.402097 249.89747 11.412109 250.65039 C 11.151511 254.94193 11.009432 259.2396 10.988281 263.53711 C 20.427379 267.65489 28.428287 277.43388 36.9375 275.07227 C 42.12517 288.04608 21.562973 300.51047 37.626953 312.61133 C 46.013153 324.86162 60.110911 332.89912 52.488281 350.09766 C 49.101855 360.76832 48.76365 372.0323 47.792969 382.8457 C 52.018241 388.55623 56.609043 393.97907 61.566406 399.04297 C 63.537349 390.87943 66.040146 383.17911 72.462891 377.41016 C 86.977741 377.51926 75.24849 362.58666 89.65625 364.53516 C 98.44795 353.60269 100.99336 340.55791 115.83008 336.2168 C 117.60232 322.94647 140.48985 302.6257 116.83594 297.45898 C 110.4071 294.4529 93.848291 293.37783 95.113281 291.89453 C 97.676171 278.72684 73.732676 274.97715 63.535156 269.58984 C 50.146216 260.57378 30.023821 284.56703 25.306641 263.89258 C 22.492001 257.3877 12.180486 257.29314 16.910156 247.25586 z M 50.289062 250.0918 C 42.548834 257.5465 66.236334 252.31896 50.289062 250.0918 z "
       transform="translate(280.33287,101.27761)"
       id="path4305" />
    <path
       style="opacity:1;fill:#3192c9;fill-opacity:1;stroke:none;stroke-width:1;stroke-linecap:butt;stroke-linejoin:miter;stroke-miterlimit:4;stroke-dasharray:none;stroke-dashoffset:0;stroke-opacity:1;marker:none"
       d="m 234.71484,35.460938 c 0.19015,1.970455 -3.24329,10.960265 7.76563,5.453124 1.45434,-0.205929 4.08169,-0.228405 7.68164,-0.166015 6.06118,0.1051 16.49563,1.201877 31.14453,2.560547 72.51908,6.726 134.56644,30.945001 163.15234,61.957026 29.49422,31.99745 41.0502,90.01422 30.64844,153.32227 -6.66538,40.56737 -3.67581,60.87048 10.57227,72.69531 10.56464,8.76789 12.27644,17.30113 6.52734,31.88672 -2.94613,7.47437 -6.52383,22.65985 -8.01367,33.78711 -4.92145,36.7574 -12.04624,47.67983 -35.60352,54.76953 -17.62626,5.3047 -26.0119,4.78949 -48.82226,-2.97461 -47.13566,-16.0438 -123.79573,-33.81706 -129.86133,-30.06836 -5.63759,3.4843 -1.40376,5.35862 24.61719,10.57422 13.56003,2.7179 30.56636,6.67779 37.83594,8.83789 7.26957,2.1601 25.93504,7.41497 41.46874,11.73047 15.5337,4.3154 30.40274,9.12065 33.04297,10.65625 6.80958,3.9606 29.59303,3.63515 43.86524,-0.66015 26.44975,-7.9602 36.86137,-22.80738 41.30469,-58.73438 1.45495,-11.76411 5.11214,-27.74402 8.17773,-35.52148 6.57744,-16.68709 5.63212,-22.27509 -6.19531,-36.43164 C 478.9807,311.1298 477.62368,305.08321 481.63281,276.01758 499.9114,143.50065 467.84492,83.56418 360.69336,50 331.52762,40.86411 280.25608,35.465387 234.71484,35.460938 Z m 229.25,200.501952 c -7.30706,-0.2583 -18.31932,23.1847 -18.49609,44.59961 -0.12244,14.8286 2.36598,21.79763 11.28125,31.58398 8.49353,9.32343 11.01839,2.73109 3.30664,-8.63281 -10.43691,-15.37967 -8.03096,-46.65978 4.25,-55.26172 3.35907,-2.35278 4.90857,-5.49762 3.94531,-8.00781 -1.11293,-2.90026 -2.60086,-4.22164 -4.28711,-4.28125 z"
       transform="translate(280.33287,101.27761)"
       id="path3808"
       inkscape:connector-curvature="0"
       sodipodi:nodetypes="cccsssccscsccsccssscssccccsccc" />
  </g>
</svg>
