<?xml version="1.0" encoding="utf-8"?>
<!-- Generator: Adobe Illustrator 19.0.0, SVG Export Plug-In . SVG Version: 6.00 Build 0)  -->
<svg version="1.1" id="Layer_1" xmlns="http://www.w3.org/2000/svg" xmlns:xlink="http://www.w3.org/1999/xlink" x="0px" y="0px"
	 width="406px" height="402.3px" viewBox="0 0 406 402.3" style="enable-background:new 0 0 406 402.3;" xml:space="preserve">
<style type="text/css">
	.st0{clip-path:url(#SVGID_2_);}
	.st1{clip-path:url(#SVGID_4_);fill:#0078B6;}
	.st2{clip-path:url(#SVGID_4_);fill:#FFFFFF;}
	.st3{clip-path:url(#SVGID_4_);fill:#4E5156;}
</style>
<g>
	<defs>
		<rect id="SVGID_1_" width="406" height="402.3"/>
	</defs>
	<clipPath id="SVGID_2_">
		<use xlink:href="#SVGID_1_"  style="overflow:visible;"/>
	</clipPath>
	<g class="st0">
		<defs>
			<rect id="SVGID_3_" x="-60" y="-53.2" width="595" height="595"/>
		</defs>
		<clipPath id="SVGID_4_">
			<use xlink:href="#SVGID_3_"  style="overflow:visible;"/>
		</clipPath>
		<path class="st1" d="M371.9,7.3H115.7c-17.9,0-32.5,14.6-32.5,32.5v250.3h288.7c17.9,0,32.5-14.6,32.5-32.5V39.8
			C404.4,21.9,389.8,7.3,371.9,7.3"/>
		<path class="st2" d="M347.7,250.8c0,2.6-2,4.7-4.6,4.7c-2.5,0-4.5-2.1-4.5-4.7c0-2.6,2-4.7,4.5-4.7
			C345.6,246.1,347.7,248.1,347.7,250.8 M352.3,247H382v7.5h-29.7V247z"/>
		<path class="st2" d="M382.7,218.2c0,13.2-9.1,20.9-20.9,20.9c-11.9,0-21.5-8.8-21.5-22.4c0-4.4,0.9-8.3,2.3-10.7l6.9,0.1
			c-2.1,3.5-3,6.8-3,10.5c0,9.6,7,14.4,14.8,14.4c8.4,0,14.8-5.3,14.8-13.8c0-3.8-1.1-7-2.8-10.2l5.5-2.1
			C381.5,209.4,382.7,213.8,382.7,218.2"/>
		<path class="st2" d="M382,177.9l-3,1.3c1.9,2.1,3.6,5.2,3.6,9.1c0,3.9-2,10.1-11.6,10.1h-18.8v-7.5h18.4c3.7,0,6-1.7,6-5.3
			c0-2.5-1.3-4.5-2.5-5.7h-21.9v-7.5h21.5c4.6,0,6.7-0.1,8.2-0.6V177.9"/>
		<path class="st2" d="M382.7,153.7c0,4-0.8,7.4-2.1,9.8h-43V156h15c-0.5-1.8-0.9-3.6-0.9-5.8c0-7.4,4.8-14.2,14.5-14.2
			C376.5,136,382.7,144.1,382.7,153.7 M358,151.8c0,1.9,0.5,3.1,0.9,4.2h17c0.4-1.1,0.6-2.2,0.6-3.7c0-5-4.3-8.7-9.8-8.7
			C362,143.6,358,146.6,358,151.8z"/>
		<path class="st3" d="M290.6,7.3H34.4C16.6,7.3,1.9,21.9,1.9,39.8v250.3h288.7c17.9,0,32.5-14.6,32.5-32.5V39.8
			C323.1,21.9,308.5,7.3,290.6,7.3"/>
		<path class="st2" d="M80.9,63.9c0,6.5-2.2,12-6.6,16.4c-4.4,4.4-9.8,6.7-16.1,6.7c-6.2,0-11.5-2.2-16-6.7
			c-4.5-4.4-6.7-9.9-6.7-16.4c0-6.3,2.2-11.7,6.7-16.2c4.5-4.4,9.8-6.7,16-6.7c6.3,0,11.7,2.2,16.1,6.7
			C78.7,52.2,80.9,57.6,80.9,63.9 M36.6,98.7h43.1V255H36.6V98.7z"/>
		<path class="st2" d="M163.3,63.9c0,6.5-2.2,12-6.6,16.4c-4.4,4.4-9.8,6.7-16.1,6.7c-6.2,0-11.6-2.2-16-6.7
			c-4.5-4.4-6.7-9.9-6.7-16.4c0-6.3,2.2-11.7,6.7-16.2c4.4-4.4,9.8-6.7,16-6.7c6.3,0,11.7,2.2,16.1,6.7
			C161.1,52.2,163.3,57.6,163.3,63.9 M119,98.7h43.1V255H119V98.7z"/>
		<path class="st2" d="M288.9,125.7h-41.1v80.2c0,8.1,1.4,14.1,4,17.9c2.7,3.8,7.9,5.7,15.7,5.7c3.7,0,7.2-0.3,10.7-0.9
			c3.4-0.6,6.6-1.3,9.5-2.2v24.5c-4.6,1.9-10.2,3.3-17,4.2c-6.7,0.9-13.3,1.4-19.8,1.4c-14.2,0-25.5-4.6-33.8-13.8
			c-8.3-9.2-12.4-22.4-12.4-39.6v-77.6h-18.5v-22.3l20.1-1.1l14.4-52h27v51.8h41.1V125.7"/>
		<rect x="1.9" y="329.9" class="st3" width="4.5" height="24.6"/>
		<path class="st3" d="M18.5,355c-3.5,0-5.9-1.1-7.6-2.2l1.8-3.3c1.3,0.9,3.3,1.9,5.6,1.9c1.9,0,4.1-0.8,4.1-2.8c0-3.5-6-4.2-9-7.5
			c-1-1.1-1.6-2.5-1.6-4.4c0-3.7,2.9-6.8,8-6.8c2.6,0,4.7,0.6,6.1,1.4l-0.1,4c-1.9-1-3.7-1.7-5.8-1.7c-2,0-3.6,0.9-3.6,2.5
			c0,4.6,10.7,4.3,10.7,12C27.2,352.2,23.4,355,18.5,355"/>
		<polyline class="st3" points="48.2,333.7 41.4,333.7 41.4,354.6 36.9,354.6 36.9,333.7 29.7,333.7 29.7,329.9 49.2,329.9 
			48.2,333.7 		"/>
		<rect x="52.6" y="329.9" class="st3" width="4.5" height="24.6"/>
		<polyline class="st3" points="79.4,333.7 72.6,333.7 72.6,354.6 68.1,354.6 68.1,333.7 60.9,333.7 60.9,329.9 80.4,329.9 
			79.4,333.7 		"/>
		<path class="st3" d="M101.8,352.2c-1.7,1.7-4.3,2.7-7.9,2.7c-3.5,0-6-0.8-7.7-2.4c-1.8-1.7-2.4-4.3-2.4-7v-15.6h4.5v15.3
			c0,1.8,0.5,3.3,1.5,4.3c0.9,1,2.4,1.5,4.2,1.5c2.1,0,3.6-0.6,4.5-1.5c0.9-1,1.3-2.4,1.3-4.1v-15.5h4.5v15.4
			C104.3,348.1,103.5,350.5,101.8,352.2"/>
		<polyline class="st3" points="126.6,333.7 119.9,333.7 119.9,354.6 115.3,354.6 115.3,333.7 108.2,333.7 108.2,329.9 127.7,329.9 
			126.6,333.7 		"/>
		<path class="st3" d="M149.7,351.4c-2.2,2.2-5.3,3.6-9.1,3.6c-3.6,0-6.5-1-8.7-3c-2.5-2.2-3.9-5.6-3.9-9.4c0-3.7,1.3-6.9,3.6-9.2
			c2.2-2.2,5.3-3.6,9.1-3.6c4,0,7.3,1.4,9.5,3.8c2.1,2.2,3.1,5.3,3.1,8.8C153.2,345.9,152,349.2,149.7,351.4 M140.6,333.5
			c-4.6,0-7.8,3.3-7.8,8.9c0,5.6,3.2,8.9,7.8,8.9c4.6,0,7.8-3.3,7.8-8.9C148.4,337,145.3,333.5,140.6,333.5z"/>
		<rect x="167.5" y="329.9" class="st3" width="4.5" height="24.6"/>
		<polyline class="st3" points="194.3,333.7 187.5,333.7 187.5,354.6 183,354.6 183,333.7 175.8,333.7 175.8,329.9 195.4,329.9 
			194.3,333.7 		"/>
		<path class="st3" d="M211.4,354.6l-2.4-6.2h-8.8l-2.3,6.2h-4.4l9.6-24.8h3.3l9.9,24.8H211.4 M205.6,339.1
			c-0.4-1.2-0.7-2.2-0.9-3.1h0c-0.2,0.9-0.5,1.8-0.9,3l-2.1,5.7h6L205.6,339.1z"/>
		<polyline class="st3" points="219.8,354.6 219.8,329.9 224.3,329.9 224.3,350.8 233.2,350.8 233.2,354.6 219.8,354.6 		"/>
		<rect x="236.7" y="329.9" class="st3" width="4.5" height="24.6"/>
		<path class="st3" d="M262.8,354.6l-2.4-6.2h-8.8l-2.3,6.2h-4.5l9.6-24.8h3.3l9.9,24.8H262.8 M257,339.1c-0.4-1.2-0.7-2.2-0.9-3.1
			h0c-0.1,0.9-0.5,1.8-0.9,3l-2.1,5.7h6L257,339.1z"/>
		<path class="st3" d="M289.2,354.6l-11.1-14.4c-1-1.4-1.8-2.3-2.4-3.4h-0.1c0.1,0.8,0.1,2.1,0.1,3.3v14.5h-4.5v-24.6h4.6l10.7,13.9
			c1.2,1.5,1.8,2.4,2.4,3.4h0.1c-0.1-1.1-0.1-2.5-0.1-3.6v-13.7h4.5v24.6H289.2"/>
		<path class="st3" d="M319.7,351.4c-2.2,2.2-5.3,3.6-9.1,3.6c-3.6,0-6.5-1-8.7-3c-2.5-2.2-3.9-5.6-3.9-9.4c0-3.7,1.3-6.9,3.6-9.2
			c2.2-2.2,5.3-3.6,9.1-3.6c4,0,7.3,1.4,9.5,3.8c2.1,2.2,3.1,5.3,3.1,8.8C323.2,345.9,322,349.2,319.7,351.4 M310.6,333.5
			c-4.6,0-7.8,3.3-7.8,8.9c0,5.6,3.2,8.9,7.8,8.9c4.6,0,7.8-3.3,7.8-8.9C318.4,337,315.3,333.5,310.6,333.5z"/>
		<path class="st3" d="M9.1,399.5H1.9v-24.7h7.5c8.9,0,13.7,4.9,13.7,12.1C23,394.3,17.8,399.5,9.1,399.5 M9.3,378.6H6.4v17h2.9
			c6.5,0,8.9-4.1,8.9-8.6C18.2,382.1,15.2,378.6,9.3,378.6z"/>
		<rect x="27.6" y="374.8" class="st3" width="4.5" height="24.7"/>
		<polyline class="st3" points="61.9,378.6 55.2,378.6 55.2,399.5 50.6,399.5 50.6,378.6 43.4,378.6 43.4,374.8 63,374.8 
			61.9,378.6 		"/>
		<polyline class="st3" points="66.3,399.5 66.3,374.8 80,374.8 78.8,378.6 70.8,378.6 70.8,385 78.8,385 78.8,388.8 70.8,388.8 
			70.8,395.7 80,395.7 80,399.5 66.3,399.5 		"/>
		<path class="st3" d="M96.1,399.8c-7.9,0-12.4-5.4-12.4-12.5c0-7.1,5.2-12.8,13.4-12.8c2.6,0,4.9,0.5,6.4,1.3l0,4.1
			c-2.1-1.2-4-1.8-6.2-1.8c-5.7,0-8.6,4.2-8.6,8.8c0,5,3.1,8.8,8.2,8.8c2.2,0,4.2-0.6,6.1-1.6l1.2,3.3
			C101.4,399.2,98.7,399.8,96.1,399.8"/>
		<path class="st3" d="M126.4,399.5L115.2,385c-1-1.4-1.8-2.3-2.4-3.4h-0.1c0.1,0.8,0.1,2.1,0.1,3.3v14.5h-4.5v-24.7h4.6l10.7,13.9
			c1.2,1.5,1.8,2.4,2.4,3.4h0.1c-0.1-1.1-0.1-2.5-0.1-3.6v-13.7h4.5v24.7H126.4"/>
		<path class="st3" d="M156.8,396.3c-2.2,2.2-5.3,3.6-9.1,3.6c-3.6,0-6.5-1-8.7-3c-2.5-2.2-3.9-5.6-3.9-9.4c0-3.7,1.3-6.9,3.6-9.2
			c2.2-2.2,5.3-3.6,9.1-3.6c4,0,7.3,1.4,9.5,3.8c2.1,2.2,3.1,5.3,3.1,8.8C160.3,390.8,159.1,394,156.8,396.3 M147.7,378.4
			c-4.6,0-7.8,3.3-7.8,8.9c0,5.6,3.2,8.9,7.8,8.9c4.6,0,7.8-3.3,7.8-8.9C155.5,381.8,152.4,378.4,147.7,378.4z"/>
		<polyline class="st3" points="164.9,399.5 164.9,374.8 169.5,374.8 169.5,395.6 178.3,395.6 178.3,399.5 164.9,399.5 		"/>
		<path class="st3" d="M202.3,396.3c-2.2,2.2-5.3,3.6-9.1,3.6c-3.6,0-6.5-1-8.7-3c-2.5-2.2-3.9-5.6-3.9-9.4c0-3.7,1.3-6.9,3.6-9.2
			c2.2-2.2,5.3-3.6,9.1-3.6c4,0,7.3,1.4,9.5,3.8c2.1,2.2,3.1,5.3,3.1,8.8C205.9,390.8,204.6,394,202.3,396.3 M193.3,378.4
			c-4.6,0-7.8,3.3-7.8,8.9c0,5.6,3.2,8.9,7.8,8.9c4.6,0,7.8-3.3,7.8-8.9C201,381.8,198,378.4,193.3,378.4z"/>
		<path class="st3" d="M221.8,399.8c-7.7,0-12.5-5.4-12.5-12.4c0-7.3,5.5-12.8,13.7-12.8c3.1,0,5.5,0.6,7.3,1.3l-0.1,4.2
			c-1.9-1-4.2-1.8-6.7-1.8c-6.5,0-9.2,4-9.2,8.7c0,5.2,3.3,9.1,8.6,9.1c1.6,0,3-0.3,3.9-0.7V387h4.5v10.5
			C229.1,398.8,225.7,399.8,221.8,399.8"/>
		<rect x="236.7" y="374.8" class="st3" width="4.5" height="24.7"/>
		<path class="st3" d="M262.8,399.5l-2.4-6.2h-8.8l-2.3,6.2h-4.4l9.6-24.8h3.3l9.9,24.8H262.8 M256.9,383.9
			c-0.4-1.2-0.7-2.2-0.9-3.1h0c-0.1,0.9-0.5,1.8-0.9,3l-2.1,5.7h6L256.9,383.9z"/>
	</g>
</g>
</svg>
