<?xml version="1.0" encoding="utf-8"?>
<!-- Generator: Adobe Illustrator 19.0.0, SVG Export Plug-In . SVG Version: 6.00 Build 0)  -->
<svg version="1.1" id="Layer_1" xmlns="http://www.w3.org/2000/svg" xmlns:xlink="http://www.w3.org/1999/xlink" x="0px" y="0px"
	 width="323.5px" height="127.8px" viewBox="0 0 323.5 127.8" style="enable-background:new 0 0 323.5 127.8;" xml:space="preserve"
	>
<style type="text/css">
	.st0{fill:#5E6E64;}
	.st1{fill:#8A191E;}
	.st2{fill:#8A8C8C;}
</style>
<g>
	<path class="st0" d="M17.1,92.3c-4.7,0-8.7-1.7-12.1-5c-3.3-3.3-5-7.4-5-12.1V16.7h10.4v57.2c0,2.6,0.9,4.8,2.6,6.5
		c1.7,1.7,3.9,2.6,6.5,2.6h52.7v9.4H17.1"/>
	<path class="st0" d="M150.7,16.7V26H98c-2.6,0-4.8,0.9-6.5,2.6c-1.7,1.8-2.6,3.9-2.6,6.5v38.7c0,2.6,0.9,4.7,2.6,6.5
		c1.7,1.7,3.9,2.6,6.5,2.6h52.7v9.4H95.6c-4.7,0-8.7-1.7-12.1-5c-3.4-3.3-5-7.4-5-12.1V33.7c0-4.7,1.7-8.7,5-12.1
		c3.4-3.3,7.4-5,12.1-5H150.7"/>
	<path class="st0" d="M268.4,92.3c-4.7,0-8.7-1.7-12.1-5c-3.3-3.3-5-7.4-5-12.1V16.7h10.4v57.2c0,2.6,0.9,4.8,2.6,6.5
		c1.7,1.7,3.9,2.6,6.5,2.6h52.7v9.4H268.4"/>
	<path class="st1" d="M204.5,2.9c0,0.4-0.4,0.8-0.8,0.8c-0.4,0-0.8-0.4-0.8-0.8c0-0.4,0.4-0.8,0.8-0.8
		C204.1,2.1,204.5,2.5,204.5,2.9"/>
	<path class="st1" d="M198.9,2.5c0,0.4-0.4,0.8-0.8,0.8c-0.4,0-0.8-0.4-0.8-0.8c0-0.4,0.4-0.8,0.8-0.8
		C198.5,1.7,198.9,2.1,198.9,2.5"/>
	<path class="st1" d="M198.5,9.2c0,0.4-0.4,0.8-0.8,0.8c-0.5,0-0.8-0.4-0.8-0.8c0-0.4,0.4-0.8,0.8-0.8
		C198.2,8.4,198.5,8.8,198.5,9.2"/>
	<path class="st1" d="M196.6,3.1c0,0.4-0.4,0.8-0.8,0.8c-0.4,0-0.8-0.4-0.8-0.8c0-0.4,0.4-0.8,0.8-0.8
		C196.2,2.3,196.6,2.6,196.6,3.1"/>
	<path class="st1" d="M195.1,7.6c0,0.4-0.4,0.8-0.8,0.8c-0.4,0-0.8-0.4-0.8-0.8c0-0.4,0.4-0.8,0.8-0.8
		C194.7,6.8,195.1,7.2,195.1,7.6"/>
	<path class="st1" d="M192.9,4.8c0,0.4-0.4,0.8-0.8,0.8c-0.4,0-0.8-0.4-0.8-0.8c0-0.4,0.4-0.8,0.8-0.8C192.5,4,192.9,4.4,192.9,4.8"
		/>
	<path class="st1" d="M202.3,2.3c0,0.4-0.4,0.8-0.8,0.8c-0.4,0-0.8-0.4-0.8-0.8c0-0.5,0.4-0.8,0.8-0.8C202,1.5,202.3,1.9,202.3,2.3"
		/>
	<path class="st1" d="M197.6,0.8c0,0.4-0.4,0.8-0.8,0.8c-0.4,0-0.8-0.4-0.8-0.8c0-0.4,0.4-0.8,0.8-0.8C197.2,0,197.6,0.4,197.6,0.8"
		/>
	<path class="st1" d="M196.1,3c0,0.4-0.4,0.8-0.8,0.8c-0.4,0-0.8-0.4-0.8-0.8c0-0.4,0.4-0.8,0.8-0.8C195.7,2.2,196.1,2.6,196.1,3"/>
	<path class="st1" d="M190.7,6.9c0,0.4-0.4,0.8-0.8,0.8c-0.4,0-0.8-0.4-0.8-0.8c0-0.4,0.4-0.8,0.8-0.8
		C190.3,6.1,190.7,6.5,190.7,6.9"/>
	<path class="st1" d="M188.9,10.7c0,0.4-0.4,0.8-0.8,0.8c-0.4,0-0.8-0.4-0.8-0.8c0-0.4,0.4-0.8,0.8-0.8
		C188.6,9.9,188.9,10.3,188.9,10.7"/>
	<path class="st1" d="M188.9,6.6c0,0.4-0.4,0.8-0.8,0.8c-0.4,0-0.8-0.4-0.8-0.8c0-0.4,0.4-0.8,0.8-0.8
		C188.6,5.8,188.9,6.1,188.9,6.6"/>
	<path class="st1" d="M188.4,5.1c0,0.4-0.4,0.8-0.8,0.8c-0.4,0-0.8-0.4-0.8-0.8c0-0.4,0.4-0.8,0.8-0.8
		C188.1,4.3,188.4,4.7,188.4,5.1"/>
	<path class="st1" d="M193.6,4.7c0,0.4-0.4,0.8-0.8,0.8c-0.4,0-0.8-0.4-0.8-0.8c0-0.4,0.4-0.8,0.8-0.8
		C193.3,3.9,193.6,4.2,193.6,4.7"/>
	<path class="st1" d="M192,10.7c0,0.4-0.4,0.8-0.8,0.8c-0.4,0-0.8-0.4-0.8-0.8c0-0.4,0.4-0.8,0.8-0.8C191.6,9.9,192,10.3,192,10.7"
		/>
	<path class="st1" d="M184.3,7.8c0,0.4-0.4,0.8-0.8,0.8c-0.4,0-0.8-0.4-0.8-0.8c0-0.4,0.4-0.8,0.8-0.8C184,7,184.3,7.3,184.3,7.8"/>
	<path class="st1" d="M186.2,11.2c0,0.4-0.4,0.8-0.8,0.8c-0.4,0-0.8-0.4-0.8-0.8c0-0.4,0.4-0.8,0.8-0.8
		C185.9,10.4,186.2,10.8,186.2,11.2"/>
	<path class="st1" d="M191.6,8.8c0,0.4-0.4,0.8-0.8,0.8c-0.4,0-0.8-0.4-0.8-0.8c0-0.4,0.4-0.8,0.8-0.8
		C191.2,7.9,191.6,8.3,191.6,8.8"/>
	<path class="st1" d="M187.3,10.3c0,0.4-0.4,0.8-0.8,0.8c-0.4,0-0.8-0.4-0.8-0.8c0-0.4,0.4-0.8,0.8-0.8
		C186.9,9.5,187.3,9.8,187.3,10.3"/>
	<path class="st1" d="M190.8,5.8c0,0.4-0.4,0.8-0.8,0.8c-0.4,0-0.8-0.4-0.8-0.8c0-0.4,0.4-0.8,0.8-0.8C190.4,5,190.8,5.4,190.8,5.8"
		/>
	<path class="st1" d="M181.8,6.5c0,0.4-0.4,0.8-0.8,0.8c-0.4,0-0.8-0.4-0.8-0.8c0-0.4,0.4-0.8,0.8-0.8
		C181.4,5.7,181.8,6.1,181.8,6.5"/>
	<path class="st1" d="M185.4,10.7c0,0.4-0.4,0.8-0.8,0.8c-0.4,0-0.8-0.4-0.8-0.8c0-0.4,0.4-0.8,0.8-0.8
		C185.1,9.9,185.4,10.2,185.4,10.7"/>
	<path class="st1" d="M186.2,13.3c0,0.4-0.4,0.8-0.8,0.8c-0.4,0-0.8-0.4-0.8-0.8c0-0.4,0.4-0.8,0.8-0.8
		C185.9,12.5,186.2,12.9,186.2,13.3"/>
	<path class="st1" d="M184.1,5.7c0,0.4-0.4,0.8-0.8,0.8c-0.4,0-0.8-0.4-0.8-0.8c0-0.4,0.4-0.8,0.8-0.8
		C183.7,4.9,184.1,5.3,184.1,5.7"/>
	<path class="st1" d="M181.6,14.4c0,0.4-0.4,0.8-0.8,0.8c-0.4,0-0.8-0.4-0.8-0.8c0-0.4,0.4-0.8,0.8-0.8
		C181.2,13.6,181.6,14,181.6,14.4"/>
	<path class="st1" d="M177.1,14.3c0,0.4-0.4,0.8-0.8,0.8c-0.4,0-0.8-0.4-0.8-0.8c0-0.4,0.4-0.8,0.8-0.8
		C176.8,13.5,177.1,13.9,177.1,14.3"/>
	<path class="st1" d="M187.4,11.2c0,0.5-0.4,0.8-0.8,0.8c-0.4,0-0.8-0.4-0.8-0.8c0-0.4,0.4-0.8,0.8-0.8
		C187.1,10.4,187.4,10.8,187.4,11.2"/>
	<path class="st1" d="M184.4,12.9c0,0.4-0.4,0.8-0.8,0.8c-0.4,0-0.8-0.4-0.8-0.8c0-0.4,0.4-0.8,0.8-0.8
		C184,12.1,184.4,12.5,184.4,12.9"/>
	<path class="st1" d="M185.4,9.9c0,0.4-0.4,0.8-0.8,0.8c-0.4,0-0.8-0.4-0.8-0.8c0-0.4,0.4-0.8,0.8-0.8C185,9.1,185.4,9.4,185.4,9.9"
		/>
	<path class="st1" d="M179.2,10c0,0.4-0.4,0.8-0.8,0.8c-0.4,0-0.8-0.4-0.8-0.8c0-0.4,0.4-0.8,0.8-0.8C178.8,9.2,179.2,9.5,179.2,10"
		/>
	<path class="st1" d="M179.4,15.4c0,0.4-0.4,0.8-0.8,0.8c-0.4,0-0.8-0.4-0.8-0.8c0-0.4,0.4-0.8,0.8-0.8
		C179.1,14.6,179.4,15,179.4,15.4"/>
	<path class="st1" d="M181.3,12.5c0,0.4-0.4,0.8-0.8,0.8c-0.4,0-0.8-0.4-0.8-0.8c0-0.4,0.4-0.8,0.8-0.8
		C181,11.7,181.3,12.1,181.3,12.5"/>
	<path class="st1" d="M184,9.9c0,0.4-0.4,0.8-0.8,0.8c-0.4,0-0.8-0.4-0.8-0.8c0-0.4,0.4-0.8,0.8-0.8C183.7,9.1,184,9.4,184,9.9"/>
	<path class="st1" d="M177.1,10.5c0,0.4-0.4,0.8-0.8,0.8c-0.4,0-0.8-0.4-0.8-0.8c0-0.4,0.4-0.8,0.8-0.8
		C176.7,9.7,177.1,10,177.1,10.5"/>
	<path class="st1" d="M180.7,12.5c0,0.4-0.4,0.8-0.8,0.8c-0.4,0-0.8-0.4-0.8-0.8c0-0.4,0.4-0.8,0.8-0.8
		C180.4,11.7,180.7,12.1,180.7,12.5"/>
	<path class="st1" d="M174.9,11.2c0,0.4-0.4,0.8-0.8,0.8c-0.4,0-0.8-0.4-0.8-0.8c0-0.4,0.4-0.8,0.8-0.8
		C174.5,10.4,174.9,10.8,174.9,11.2"/>
	<path class="st1" d="M180.4,13.4c0,0.4-0.4,0.8-0.8,0.8c-0.4,0-0.8-0.4-0.8-0.8c0-0.4,0.4-0.8,0.8-0.8
		C180.1,12.6,180.4,13,180.4,13.4"/>
	<path class="st1" d="M175.6,15c0,0.4-0.4,0.8-0.8,0.8c-0.4,0-0.8-0.4-0.8-0.8c0-0.4,0.4-0.8,0.8-0.8
		C175.2,14.2,175.6,14.6,175.6,15"/>
	<path class="st1" d="M176.8,21.8c0,0.4-0.4,0.8-0.8,0.8c-0.4,0-0.8-0.4-0.8-0.8c0-0.4,0.4-0.8,0.8-0.8
		C176.4,20.9,176.8,21.3,176.8,21.8"/>
	<path class="st1" d="M179.9,15.5c0,0.4-0.4,0.8-0.8,0.8c-0.4,0-0.8-0.4-0.8-0.8c0-0.4,0.4-0.8,0.8-0.8
		C179.5,14.7,179.9,15,179.9,15.5"/>
	<path class="st1" d="M171.9,18.4c0,0.4-0.4,0.8-0.8,0.8s-0.8-0.4-0.8-0.8c0-0.4,0.4-0.8,0.8-0.8S171.9,18,171.9,18.4"/>
	<path class="st1" d="M173,15.4c0,0.4-0.4,0.8-0.8,0.8c-0.4,0-0.8-0.4-0.8-0.8c0-0.4,0.4-0.8,0.8-0.8C172.7,14.6,173,14.9,173,15.4"
		/>
	<path class="st1" d="M175,14.1c0,0.4-0.4,0.8-0.8,0.8c-0.4,0-0.8-0.4-0.8-0.8c0-0.4,0.4-0.8,0.8-0.8C174.6,13.3,175,13.7,175,14.1"
		/>
	<path class="st1" d="M176.6,14.1c0,0.4-0.4,0.8-0.8,0.8c-0.4,0-0.8-0.4-0.8-0.8c0-0.4,0.4-0.8,0.8-0.8
		C176.2,13.3,176.6,13.6,176.6,14.1"/>
	<path class="st1" d="M179.4,18.2c0,0.4-0.4,0.8-0.8,0.8c-0.4,0-0.8-0.4-0.8-0.8c0-0.5,0.4-0.8,0.8-0.8
		C179.1,17.4,179.4,17.7,179.4,18.2"/>
	<path class="st1" d="M170.8,22.2c0,0.4-0.4,0.8-0.8,0.8c-0.4,0-0.8-0.4-0.8-0.8c0-0.4,0.4-0.8,0.8-0.8
		C170.5,21.4,170.8,21.7,170.8,22.2"/>
	<path class="st1" d="M169.4,20.7c0,0.4-0.4,0.8-0.8,0.8c-0.4,0-0.8-0.4-0.8-0.8c0-0.4,0.4-0.8,0.8-0.8
		C169,19.9,169.4,20.2,169.4,20.7"/>
	<path class="st1" d="M175.1,19.5c0,0.4-0.4,0.8-0.8,0.8c-0.4,0-0.8-0.4-0.8-0.8c0-0.4,0.4-0.8,0.8-0.8
		C174.8,18.7,175.1,19.1,175.1,19.5"/>
	<path class="st1" d="M177.7,22.5c0,0.4-0.4,0.8-0.8,0.8c-0.4,0-0.8-0.4-0.8-0.8c0-0.4,0.4-0.8,0.8-0.8
		C177.4,21.7,177.7,22,177.7,22.5"/>
	<path class="st1" d="M166.2,23.7c0,0.4-0.4,0.8-0.8,0.8c-0.4,0-0.8-0.4-0.8-0.8c0-0.4,0.4-0.8,0.8-0.8
		C165.8,22.9,166.2,23.3,166.2,23.7"/>
	<path class="st1" d="M171.3,19.2c0,0.4-0.4,0.8-0.8,0.8s-0.8-0.4-0.8-0.8c0-0.4,0.4-0.8,0.8-0.8S171.3,18.8,171.3,19.2"/>
	<path class="st1" d="M170.9,19.6c0,0.4-0.4,0.8-0.8,0.8c-0.5,0-0.8-0.4-0.8-0.8c0-0.4,0.4-0.8,0.8-0.8
		C170.5,18.8,170.9,19.2,170.9,19.6"/>
	<path class="st1" d="M167.1,27.3c0,0.4-0.4,0.8-0.8,0.8c-0.4,0-0.8-0.4-0.8-0.8c0-0.4,0.4-0.8,0.8-0.8
		C166.7,26.4,167.1,26.8,167.1,27.3"/>
	<path class="st1" d="M168.2,23.6c0,0.4-0.4,0.8-0.8,0.8c-0.4,0-0.8-0.4-0.8-0.8c0-0.4,0.4-0.8,0.8-0.8
		C167.9,22.8,168.2,23.1,168.2,23.6"/>
	<path class="st1" d="M170.7,21.3c0,0.4-0.4,0.8-0.8,0.8c-0.4,0-0.8-0.4-0.8-0.8c0-0.4,0.4-0.8,0.8-0.8
		C170.4,20.5,170.7,20.9,170.7,21.3"/>
	<path class="st1" d="M169.8,29.5c0,0.4-0.4,0.8-0.8,0.8c-0.4,0-0.8-0.4-0.8-0.8c0-0.4,0.4-0.8,0.8-0.8
		C169.4,28.7,169.8,29,169.8,29.5"/>
	<path class="st1" d="M170.1,29.1c0,0.4-0.4,0.8-0.8,0.8c-0.4,0-0.8-0.4-0.8-0.8c0-0.4,0.4-0.8,0.8-0.8
		C169.8,28.3,170.1,28.6,170.1,29.1"/>
	<path class="st1" d="M174.1,32.9c0,0.4-0.4,0.8-0.8,0.8c-0.4,0-0.8-0.4-0.8-0.8c0-0.4,0.4-0.8,0.8-0.8
		C173.8,32,174.1,32.4,174.1,32.9"/>
	<path class="st1" d="M169.2,28.8c0,0.4-0.4,0.8-0.8,0.8c-0.4,0-0.8-0.4-0.8-0.8c0-0.4,0.4-0.8,0.8-0.8
		C168.8,28,169.2,28.4,169.2,28.8"/>
	<path class="st1" d="M175.2,26.1c0,0.4-0.4,0.8-0.8,0.8c-0.4,0-0.8-0.4-0.8-0.8s0.4-0.8,0.8-0.8C174.9,25.3,175.2,25.6,175.2,26.1"
		/>
	<path class="st1" d="M171.7,29.4c0,0.4-0.4,0.8-0.8,0.8c-0.4,0-0.8-0.4-0.8-0.8c0-0.4,0.4-0.8,0.8-0.8
		C171.4,28.6,171.7,29,171.7,29.4"/>
	<path class="st1" d="M171.7,27.4c0,0.4-0.4,0.8-0.8,0.8c-0.4,0-0.8-0.4-0.8-0.8c0-0.4,0.4-0.8,0.8-0.8
		C171.3,26.6,171.7,27,171.7,27.4"/>
	<path class="st1" d="M168.2,28.8c0,0.4-0.4,0.8-0.8,0.8c-0.4,0-0.8-0.4-0.8-0.8c0-0.4,0.4-0.8,0.8-0.8
		C167.9,28,168.2,28.4,168.2,28.8"/>
	<path class="st1" d="M168.3,32.1c0,0.4-0.4,0.8-0.8,0.8c-0.4,0-0.8-0.4-0.8-0.8c0-0.4,0.4-0.8,0.8-0.8
		C168,31.3,168.3,31.7,168.3,32.1"/>
	<path class="st1" d="M162.6,29.2c0,0.4-0.4,0.8-0.8,0.8c-0.4,0-0.8-0.4-0.8-0.8c0-0.4,0.4-0.8,0.8-0.8
		C162.3,28.4,162.6,28.7,162.6,29.2"/>
	<path class="st1" d="M168.9,33.9c0,0.4-0.4,0.8-0.8,0.8c-0.5,0-0.8-0.4-0.8-0.8c0-0.4,0.4-0.8,0.8-0.8
		C168.5,33.1,168.9,33.5,168.9,33.9"/>
	<path class="st1" d="M171.1,34.5c0,0.4-0.4,0.8-0.8,0.8c-0.4,0-0.8-0.4-0.8-0.8c0-0.4,0.4-0.8,0.8-0.8
		C170.7,33.7,171.1,34,171.1,34.5"/>
	<path class="st1" d="M165.3,31.7c0,0.4-0.4,0.8-0.8,0.8c-0.4,0-0.8-0.4-0.8-0.8c0-0.4,0.4-0.8,0.8-0.8
		C164.9,30.9,165.3,31.2,165.3,31.7"/>
	<path class="st1" d="M171.5,29.6c0,0.4-0.4,0.8-0.8,0.8c-0.4,0-0.8-0.4-0.8-0.8c0-0.4,0.4-0.8,0.8-0.8
		C171.2,28.8,171.5,29.2,171.5,29.6"/>
	<path class="st1" d="M164.5,35.8c0,0.4-0.4,0.8-0.8,0.8c-0.4,0-0.8-0.4-0.8-0.8c0-0.4,0.4-0.8,0.8-0.8
		C164.2,35,164.5,35.3,164.5,35.8"/>
	<path class="st1" d="M168,37.3c0,0.4-0.4,0.8-0.8,0.8c-0.4,0-0.8-0.4-0.8-0.8c0-0.4,0.4-0.8,0.8-0.8C167.6,36.5,168,36.9,168,37.3"
		/>
	<path class="st1" d="M163.1,33.5c0,0.4-0.4,0.8-0.8,0.8c-0.4,0-0.8-0.4-0.8-0.8c0-0.5,0.4-0.8,0.8-0.8
		C162.8,32.7,163.1,33.1,163.1,33.5"/>
	<path class="st1" d="M166.7,37.2c0,0.4-0.4,0.8-0.8,0.8c-0.4,0-0.8-0.4-0.8-0.8c0-0.4,0.4-0.8,0.8-0.8
		C166.3,36.4,166.7,36.8,166.7,37.2"/>
	<path class="st1" d="M169.1,37.5c0,0.4-0.4,0.8-0.8,0.8s-0.8-0.4-0.8-0.8c0-0.4,0.4-0.8,0.8-0.8S169.1,37.1,169.1,37.5"/>
	<path class="st1" d="M166.9,32.8c0,0.4-0.4,0.8-0.8,0.8c-0.4,0-0.8-0.4-0.8-0.8c0-0.4,0.4-0.8,0.8-0.8
		C166.5,32,166.9,32.4,166.9,32.8"/>
	<path class="st1" d="M167.8,40.8c0,0.4-0.4,0.8-0.8,0.8c-0.5,0-0.8-0.4-0.8-0.8c0-0.4,0.4-0.8,0.8-0.8
		C167.5,40,167.8,40.4,167.8,40.8"/>
	<path class="st1" d="M165.7,33.1c0,0.4-0.4,0.8-0.8,0.8c-0.4,0-0.8-0.4-0.8-0.8c0-0.4,0.4-0.8,0.8-0.8
		C165.3,32.3,165.7,32.7,165.7,33.1"/>
	<path class="st1" d="M165.8,44.7c0,0.4-0.4,0.8-0.8,0.8c-0.4,0-0.8-0.4-0.8-0.8c0-0.4,0.4-0.8,0.8-0.8
		C165.5,43.9,165.8,44.2,165.8,44.7"/>
	<path class="st1" d="M166.1,41c0,0.4-0.4,0.8-0.8,0.8s-0.8-0.4-0.8-0.8c0-0.4,0.4-0.8,0.8-0.8S166.1,40.6,166.1,41"/>
	<path class="st1" d="M170.7,43.2c0,0.4-0.4,0.8-0.8,0.8c-0.4,0-0.8-0.4-0.8-0.8c0-0.4,0.4-0.8,0.8-0.8
		C170.3,42.4,170.7,42.8,170.7,43.2"/>
	<path class="st1" d="M169,41.9c0,0.4-0.4,0.8-0.8,0.8s-0.8-0.4-0.8-0.8c0-0.4,0.4-0.8,0.8-0.8S169,41.4,169,41.9"/>
	<path class="st1" d="M166.4,45.8c0,0.4-0.4,0.8-0.8,0.8c-0.4,0-0.8-0.4-0.8-0.8c0-0.4,0.4-0.8,0.8-0.8
		C166,45,166.4,45.3,166.4,45.8"/>
	<path class="st1" d="M170.8,38.3c0,0.4-0.4,0.8-0.8,0.8c-0.4,0-0.8-0.4-0.8-0.8c0-0.4,0.4-0.8,0.8-0.8
		C170.5,37.5,170.8,37.8,170.8,38.3"/>
	<path class="st1" d="M168,44.1c0,0.4-0.4,0.8-0.8,0.8c-0.4,0-0.8-0.4-0.8-0.8c0-0.4,0.4-0.8,0.8-0.8C167.6,43.3,168,43.7,168,44.1"
		/>
	<path class="st1" d="M167.8,45.9c0,0.4-0.4,0.8-0.8,0.8c-0.4,0-0.8-0.4-0.8-0.8c0-0.5,0.4-0.8,0.8-0.8
		C167.4,45.1,167.8,45.5,167.8,45.9"/>
	<path class="st1" d="M168.2,44.6c0,0.4-0.4,0.8-0.8,0.8c-0.4,0-0.8-0.4-0.8-0.8c0-0.4,0.4-0.8,0.8-0.8
		C167.8,43.8,168.2,44.1,168.2,44.6"/>
	<path class="st1" d="M167.7,42.5c0,0.4-0.4,0.8-0.8,0.8c-0.4,0-0.8-0.4-0.8-0.8c0-0.4,0.4-0.8,0.8-0.8
		C167.4,41.7,167.7,42.1,167.7,42.5"/>
	<path class="st1" d="M162.8,48.2c0,0.4-0.4,0.8-0.8,0.8c-0.4,0-0.8-0.4-0.8-0.8c0-0.4,0.4-0.8,0.8-0.8
		C162.4,47.4,162.8,47.8,162.8,48.2"/>
	<path class="st1" d="M160.5,44.2c0,0.4-0.4,0.8-0.8,0.8c-0.4,0-0.8-0.4-0.8-0.8c0-0.4,0.4-0.8,0.8-0.8
		C160.2,43.4,160.5,43.8,160.5,44.2"/>
	<path class="st1" d="M168.6,46.6c0,0.4-0.4,0.8-0.8,0.8c-0.4,0-0.8-0.4-0.8-0.8c0-0.4,0.4-0.8,0.8-0.8
		C168.2,45.8,168.6,46.2,168.6,46.6"/>
	<path class="st1" d="M162.3,53.4c0,0.4-0.4,0.8-0.8,0.8c-0.4,0-0.8-0.4-0.8-0.8c0-0.4,0.4-0.8,0.8-0.8
		C161.9,52.6,162.3,52.9,162.3,53.4"/>
	<path class="st1" d="M166.8,44.9c0,0.5-0.4,0.8-0.8,0.8c-0.4,0-0.8-0.4-0.8-0.8c0-0.4,0.4-0.8,0.8-0.8
		C166.5,44.1,166.8,44.4,166.8,44.9"/>
	<path class="st1" d="M167.8,50.5c0,0.4-0.4,0.8-0.8,0.8c-0.4,0-0.8-0.4-0.8-0.8c0-0.4,0.4-0.8,0.8-0.8
		C167.5,49.7,167.8,50.1,167.8,50.5"/>
	<path class="st1" d="M167.5,49.6c0,0.4-0.4,0.8-0.8,0.8c-0.4,0-0.8-0.4-0.8-0.8c0-0.4,0.4-0.8,0.8-0.8
		C167.2,48.8,167.5,49.2,167.5,49.6"/>
	<path class="st1" d="M171.4,56.1c0,0.4-0.4,0.8-0.8,0.8c-0.4,0-0.8-0.4-0.8-0.8c0-0.4,0.4-0.8,0.8-0.8
		C171,55.3,171.4,55.6,171.4,56.1"/>
	<path class="st1" d="M160.3,53.9c0,0.4-0.4,0.8-0.8,0.8c-0.4,0-0.8-0.4-0.8-0.8c0-0.4,0.4-0.8,0.8-0.8
		C160,53.1,160.3,53.4,160.3,53.9"/>
	<path class="st1" d="M165.3,51.1c0,0.4-0.4,0.8-0.8,0.8c-0.4,0-0.8-0.4-0.8-0.8c0-0.4,0.4-0.8,0.8-0.8
		C165,50.3,165.3,50.7,165.3,51.1"/>
	<path class="st1" d="M160.9,49.8c0,0.4-0.4,0.8-0.8,0.8c-0.4,0-0.8-0.4-0.8-0.8s0.4-0.8,0.8-0.8C160.6,49,160.9,49.4,160.9,49.8"/>
	<path class="st1" d="M170.8,56.8c0,0.4-0.4,0.8-0.8,0.8c-0.4,0-0.8-0.4-0.8-0.8c0-0.4,0.4-0.8,0.8-0.8
		C170.5,56,170.8,56.4,170.8,56.8"/>
	<path class="st1" d="M161.5,53.3c0,0.4-0.4,0.8-0.8,0.8c-0.4,0-0.8-0.4-0.8-0.8c0-0.4,0.4-0.8,0.8-0.8
		C161.1,52.4,161.5,52.8,161.5,53.3"/>
	<path class="st1" d="M161.1,54.8c0,0.4-0.4,0.8-0.8,0.8c-0.4,0-0.8-0.4-0.8-0.8c0-0.4,0.4-0.8,0.8-0.8
		C160.8,54,161.1,54.3,161.1,54.8"/>
	<path class="st1" d="M168.6,58.6c0,0.4-0.4,0.8-0.8,0.8c-0.4,0-0.8-0.4-0.8-0.8c0-0.4,0.4-0.8,0.8-0.8
		C168.3,57.8,168.6,58.2,168.6,58.6"/>
	<path class="st1" d="M163.3,56.6c0,0.4-0.4,0.8-0.8,0.8c-0.4,0-0.8-0.4-0.8-0.8c0-0.4,0.4-0.8,0.8-0.8
		C162.9,55.8,163.3,56.2,163.3,56.6"/>
	<path class="st1" d="M171,54c0,0.4-0.4,0.8-0.8,0.8c-0.4,0-0.8-0.4-0.8-0.8c0-0.4,0.4-0.8,0.8-0.8C170.6,53.2,171,53.6,171,54"/>
	<path class="st1" d="M164.9,57.9c0,0.4-0.4,0.8-0.8,0.8c-0.4,0-0.8-0.4-0.8-0.8c0-0.4,0.4-0.8,0.8-0.8
		C164.5,57.1,164.9,57.5,164.9,57.9"/>
	<path class="st1" d="M168.8,54.5c0,0.4-0.4,0.8-0.8,0.8c-0.4,0-0.8-0.4-0.8-0.8c0-0.4,0.4-0.8,0.8-0.8
		C168.5,53.7,168.8,54,168.8,54.5"/>
	<path class="st1" d="M168.4,62.6c0,0.4-0.4,0.8-0.8,0.8c-0.4,0-0.8-0.4-0.8-0.8c0-0.4,0.4-0.8,0.8-0.8
		C168,61.8,168.4,62.1,168.4,62.6"/>
	<path class="st1" d="M171.4,55.2c0,0.4-0.4,0.8-0.8,0.8c-0.4,0-0.8-0.4-0.8-0.8c0-0.4,0.4-0.8,0.8-0.8
		C171.1,54.3,171.4,54.7,171.4,55.2"/>
	<path class="st1" d="M168.1,64.3c0,0.4-0.4,0.8-0.8,0.8c-0.4,0-0.8-0.4-0.8-0.8c0-0.4,0.4-0.8,0.8-0.8
		C167.7,63.5,168.1,63.8,168.1,64.3"/>
	<path class="st1" d="M168.7,66.4c0,0.4-0.4,0.8-0.8,0.8c-0.4,0-0.8-0.4-0.8-0.8c0-0.4,0.4-0.8,0.8-0.8
		C168.3,65.6,168.7,66,168.7,66.4"/>
	<path class="st1" d="M175,66.1c0,0.4-0.4,0.8-0.8,0.8s-0.8-0.4-0.8-0.8c0-0.4,0.4-0.8,0.8-0.8S175,65.7,175,66.1"/>
	<path class="st1" d="M166.1,60.6c0,0.4-0.4,0.8-0.8,0.8c-0.4,0-0.8-0.4-0.8-0.8c0-0.4,0.4-0.8,0.8-0.8
		C165.8,59.8,166.1,60.2,166.1,60.6"/>
	<path class="st1" d="M169.1,63.8c0,0.4-0.4,0.8-0.8,0.8c-0.4,0-0.8-0.4-0.8-0.8c0-0.4,0.4-0.8,0.8-0.8
		C168.8,63,169.1,63.4,169.1,63.8"/>
	<path class="st1" d="M171.5,60.8c0,0.4-0.4,0.8-0.8,0.8c-0.4,0-0.8-0.4-0.8-0.8c0-0.4,0.4-0.8,0.8-0.8
		C171.1,60,171.5,60.4,171.5,60.8"/>
	<path class="st1" d="M170.1,61.8c0,0.4-0.4,0.8-0.8,0.8c-0.4,0-0.8-0.4-0.8-0.8c0-0.4,0.4-0.8,0.8-0.8
		C169.7,61,170.1,61.4,170.1,61.8"/>
	<path class="st1" d="M170.9,68.7c0,0.4-0.4,0.8-0.8,0.8c-0.4,0-0.8-0.4-0.8-0.8c0-0.4,0.4-0.8,0.8-0.8
		C170.6,67.9,170.9,68.2,170.9,68.7"/>
	<path class="st1" d="M180.6,63.7c0,0.4-0.4,0.8-0.8,0.8s-0.8-0.4-0.8-0.8c0-0.4,0.4-0.8,0.8-0.8S180.6,63.3,180.6,63.7"/>
	<path class="st1" d="M179,64.8c0,0.4-0.4,0.8-0.8,0.8c-0.4,0-0.8-0.4-0.8-0.8c0-0.4,0.4-0.8,0.8-0.8C178.7,64,179,64.4,179,64.8"/>
	<path class="st1" d="M179.6,71.1c0,0.4-0.4,0.8-0.8,0.8c-0.4,0-0.8-0.4-0.8-0.8c0-0.4,0.4-0.8,0.8-0.8
		C179.2,70.3,179.6,70.7,179.6,71.1"/>
	<path class="st1" d="M171.9,69.7c0,0.4-0.4,0.8-0.8,0.8c-0.4,0-0.8-0.4-0.8-0.8c0-0.4,0.4-0.8,0.8-0.8
		C171.6,68.9,171.9,69.3,171.9,69.7"/>
	<path class="st1" d="M176.7,74.2c0,0.4-0.4,0.8-0.8,0.8c-0.4,0-0.8-0.4-0.8-0.8c0-0.4,0.4-0.8,0.8-0.8
		C176.3,73.4,176.7,73.8,176.7,74.2"/>
	<path class="st1" d="M179.1,66.2c0,0.4-0.4,0.8-0.8,0.8c-0.4,0-0.8-0.4-0.8-0.8c0-0.4,0.4-0.8,0.8-0.8
		C178.7,65.4,179.1,65.7,179.1,66.2"/>
	<path class="st1" d="M178.8,73.7c0,0.4-0.4,0.8-0.8,0.8c-0.4,0-0.8-0.4-0.8-0.8c0-0.4,0.4-0.8,0.8-0.8
		C178.5,72.9,178.8,73.2,178.8,73.7"/>
	<path class="st1" d="M176.4,68.8c0,0.4-0.4,0.8-0.8,0.8c-0.4,0-0.8-0.4-0.8-0.8c0-0.4,0.4-0.8,0.8-0.8
		C176,68,176.4,68.4,176.4,68.8"/>
	<path class="st1" d="M182.3,73c0,0.4-0.4,0.8-0.8,0.8c-0.4,0-0.8-0.4-0.8-0.8c0-0.4,0.4-0.8,0.8-0.8
		C181.9,72.2,182.3,72.5,182.3,73"/>
	<path class="st1" d="M183.3,72.8c0,0.4-0.4,0.8-0.8,0.8c-0.4,0-0.8-0.4-0.8-0.8c0-0.4,0.4-0.8,0.8-0.8
		C182.9,72,183.3,72.4,183.3,72.8"/>
	<path class="st1" d="M180.9,69c0,0.4-0.4,0.8-0.8,0.8c-0.4,0-0.8-0.4-0.8-0.8c0-0.4,0.4-0.8,0.8-0.8
		C180.5,68.2,180.9,68.6,180.9,69"/>
	<path class="st1" d="M179.7,73.9c0,0.4-0.4,0.8-0.8,0.8c-0.4,0-0.8-0.4-0.8-0.8c0-0.4,0.4-0.8,0.8-0.8
		C179.3,73.1,179.7,73.5,179.7,73.9"/>
	<path class="st1" d="M187.9,75.5c0,0.4-0.4,0.8-0.8,0.8c-0.4,0-0.8-0.4-0.8-0.8c0-0.4,0.4-0.8,0.8-0.8
		C187.5,74.7,187.9,75.1,187.9,75.5"/>
	<path class="st1" d="M187.8,76.3c0,0.4-0.4,0.8-0.8,0.8c-0.4,0-0.8-0.4-0.8-0.8c0-0.4,0.4-0.8,0.8-0.8
		C187.4,75.5,187.8,75.9,187.8,76.3"/>
	<path class="st1" d="M178.5,72.2c0,0.4-0.4,0.8-0.8,0.8c-0.4,0-0.8-0.4-0.8-0.8c0-0.4,0.4-0.8,0.8-0.8
		C178.2,71.4,178.5,71.8,178.5,72.2"/>
	<path class="st1" d="M187.9,76.5c0,0.4-0.4,0.8-0.8,0.8c-0.4,0-0.8-0.4-0.8-0.8c0-0.4,0.4-0.8,0.8-0.8
		C187.6,75.7,187.9,76.1,187.9,76.5"/>
	<path class="st1" d="M180.8,76.8c0,0.4-0.4,0.8-0.8,0.8c-0.4,0-0.8-0.4-0.8-0.8c0-0.4,0.4-0.8,0.8-0.8
		C180.4,76,180.8,76.3,180.8,76.8"/>
	<path class="st1" d="M187.5,76c0,0.4-0.4,0.8-0.8,0.8c-0.4,0-0.8-0.4-0.8-0.8c0-0.4,0.4-0.8,0.8-0.8
		C187.2,75.2,187.5,75.5,187.5,76"/>
	<path class="st1" d="M181.2,70.3c0,0.4-0.4,0.8-0.8,0.8c-0.4,0-0.8-0.4-0.8-0.8c0-0.4,0.4-0.8,0.8-0.8
		C180.8,69.5,181.2,69.8,181.2,70.3"/>
	<path class="st1" d="M187.2,73c0,0.4-0.4,0.8-0.8,0.8c-0.4,0-0.8-0.4-0.8-0.8c0-0.4,0.4-0.8,0.8-0.8
		C186.9,72.2,187.2,72.5,187.2,73"/>
	<path class="st1" d="M190.7,72.8c0,0.4-0.4,0.8-0.8,0.8c-0.4,0-0.8-0.4-0.8-0.8c0-0.4,0.4-0.8,0.8-0.8
		C190.3,72,190.7,72.4,190.7,72.8"/>
	<path class="st1" d="M184.8,73c0,0.4-0.4,0.8-0.8,0.8c-0.4,0-0.8-0.4-0.8-0.8c0-0.4,0.4-0.8,0.8-0.8
		C184.4,72.2,184.8,72.6,184.8,73"/>
	<path class="st1" d="M186.5,76.9c0,0.4-0.4,0.8-0.8,0.8c-0.4,0-0.8-0.4-0.8-0.8c0-0.4,0.4-0.8,0.8-0.8
		C186.1,76.1,186.5,76.5,186.5,76.9"/>
	<path class="st1" d="M182.6,73.7c0,0.5-0.4,0.8-0.8,0.8c-0.4,0-0.8-0.4-0.8-0.8c0-0.4,0.4-0.8,0.8-0.8
		C182.3,72.9,182.6,73.3,182.6,73.7"/>
	<path class="st1" d="M187.4,70.8c0,0.4-0.4,0.8-0.8,0.8c-0.4,0-0.8-0.4-0.8-0.8c0-0.4,0.4-0.8,0.8-0.8
		C187,70,187.4,70.3,187.4,70.8"/>
	<path class="st1" d="M186.5,81.6c0,0.4-0.4,0.8-0.8,0.8c-0.4,0-0.8-0.4-0.8-0.8c0-0.4,0.4-0.8,0.8-0.8
		C186.2,80.8,186.5,81.2,186.5,81.6"/>
	<path class="st1" d="M188.8,75.3c0,0.4-0.4,0.8-0.8,0.8c-0.4,0-0.8-0.4-0.8-0.8c0-0.4,0.4-0.8,0.8-0.8
		C188.4,74.5,188.8,74.9,188.8,75.3"/>
	<path class="st1" d="M185.8,78.7c0,0.4-0.4,0.8-0.8,0.8c-0.4,0-0.8-0.4-0.8-0.8c0-0.4,0.4-0.8,0.8-0.8
		C185.4,77.9,185.8,78.2,185.8,78.7"/>
	<path class="st1" d="M192.4,76c0,0.4-0.4,0.8-0.8,0.8s-0.8-0.4-0.8-0.8c0-0.4,0.4-0.8,0.8-0.8S192.4,75.6,192.4,76"/>
	<path class="st1" d="M193.8,76.7c0,0.4-0.4,0.8-0.8,0.8c-0.4,0-0.8-0.4-0.8-0.8c0-0.4,0.4-0.8,0.8-0.8
		C193.4,75.9,193.8,76.2,193.8,76.7"/>
	<path class="st1" d="M195.7,85c0,0.4-0.4,0.8-0.8,0.8c-0.4,0-0.8-0.4-0.8-0.8c0-0.4,0.4-0.8,0.8-0.8
		C195.4,84.1,195.7,84.5,195.7,85"/>
	<path class="st1" d="M201.2,79.5c0,0.4-0.4,0.8-0.8,0.8c-0.5,0-0.8-0.4-0.8-0.8c0-0.4,0.4-0.8,0.8-0.8
		C200.8,78.7,201.2,79.1,201.2,79.5"/>
	<path class="st1" d="M199.5,75.5c0,0.4-0.4,0.8-0.8,0.8c-0.4,0-0.8-0.4-0.8-0.8c0-0.4,0.4-0.8,0.8-0.8
		C199.1,74.7,199.5,75,199.5,75.5"/>
	<path class="st1" d="M198.4,81.3c0,0.4-0.4,0.8-0.8,0.8c-0.4,0-0.8-0.4-0.8-0.8c0-0.4,0.4-0.8,0.8-0.8
		C198,80.5,198.4,80.8,198.4,81.3"/>
	<path class="st1" d="M195.3,83.1c0,0.4-0.4,0.8-0.8,0.8c-0.4,0-0.8-0.4-0.8-0.8c0-0.4,0.4-0.8,0.8-0.8
		C195,82.3,195.3,82.6,195.3,83.1"/>
	<path class="st1" d="M196.4,77.6c0,0.4-0.4,0.8-0.8,0.8c-0.4,0-0.8-0.4-0.8-0.8c0-0.4,0.4-0.8,0.8-0.8
		C196,76.8,196.4,77.2,196.4,77.6"/>
	<path class="st1" d="M198.9,77.4c0,0.4-0.4,0.8-0.8,0.8c-0.4,0-0.8-0.4-0.8-0.8c0-0.4,0.4-0.8,0.8-0.8
		C198.5,76.6,198.9,76.9,198.9,77.4"/>
	<path class="st1" d="M200.9,75.9c0,0.4-0.4,0.8-0.8,0.8c-0.4,0-0.8-0.4-0.8-0.8c0-0.4,0.4-0.8,0.8-0.8
		C200.6,75.1,200.9,75.4,200.9,75.9"/>
	<path class="st1" d="M203.1,78.6c0,0.4-0.4,0.8-0.8,0.8s-0.8-0.4-0.8-0.8c0-0.4,0.4-0.8,0.8-0.8S203.1,78.2,203.1,78.6"/>
	<path class="st1" d="M195.6,75.1c0,0.4-0.4,0.8-0.8,0.8c-0.4,0-0.8-0.4-0.8-0.8c0-0.4,0.4-0.8,0.8-0.8
		C195.2,74.3,195.6,74.7,195.6,75.1"/>
	<path class="st1" d="M200.5,79.1c0,0.4-0.4,0.8-0.8,0.8c-0.4,0-0.8-0.4-0.8-0.8c0-0.4,0.4-0.8,0.8-0.8
		C200.1,78.3,200.5,78.7,200.5,79.1"/>
	<path class="st1" d="M201.5,80.3c0,0.4-0.4,0.8-0.8,0.8c-0.5,0-0.8-0.4-0.8-0.8c0-0.4,0.4-0.8,0.8-0.8
		C201.2,79.5,201.5,79.9,201.5,80.3"/>
	<path class="st1" d="M208.3,75.6c0,0.4-0.4,0.8-0.8,0.8c-0.4,0-0.8-0.4-0.8-0.8c0-0.4,0.4-0.8,0.8-0.8
		C207.9,74.8,208.3,75.2,208.3,75.6"/>
	<path class="st1" d="M207.3,79.6c0,0.4-0.4,0.8-0.8,0.8c-0.4,0-0.8-0.4-0.8-0.8c0-0.4,0.4-0.8,0.8-0.8
		C207,78.8,207.3,79.2,207.3,79.6"/>
	<path class="st1" d="M203.4,83.8c0,0.4-0.4,0.8-0.8,0.8c-0.4,0-0.8-0.4-0.8-0.8c0-0.4,0.4-0.8,0.8-0.8
		C203,83,203.4,83.3,203.4,83.8"/>
	<path class="st1" d="M207.4,79c0,0.4-0.4,0.8-0.8,0.8c-0.4,0-0.8-0.4-0.8-0.8c0-0.4,0.4-0.8,0.8-0.8
		C207.1,78.2,207.4,78.5,207.4,79"/>
	<path class="st1" d="M204.5,82.1c0,0.4-0.4,0.8-0.8,0.8c-0.4,0-0.8-0.4-0.8-0.8c0-0.4,0.4-0.8,0.8-0.8
		C204.1,81.3,204.5,81.6,204.5,82.1"/>
	<path class="st1" d="M207.6,77.8c0,0.4-0.4,0.8-0.8,0.8c-0.4,0-0.8-0.4-0.8-0.8c0-0.4,0.4-0.8,0.8-0.8
		C207.2,76.9,207.6,77.3,207.6,77.8"/>
	<path class="st1" d="M210.7,79.8c0,0.4-0.4,0.8-0.8,0.8c-0.4,0-0.8-0.4-0.8-0.8c0-0.4,0.4-0.8,0.8-0.8
		C210.4,79,210.7,79.3,210.7,79.8"/>
	<path class="st1" d="M208.9,75.9c0,0.4-0.4,0.8-0.8,0.8c-0.4,0-0.8-0.4-0.8-0.8c0-0.4,0.4-0.8,0.8-0.8
		C208.6,75.1,208.9,75.4,208.9,75.9"/>
	<path class="st1" d="M206.5,76.5c0,0.4-0.4,0.8-0.8,0.8c-0.4,0-0.8-0.4-0.8-0.8c0-0.4,0.4-0.8,0.8-0.8
		C206.1,75.7,206.5,76.1,206.5,76.5"/>
	<path class="st1" d="M204.4,73.1c0,0.4-0.4,0.8-0.8,0.8c-0.4,0-0.8-0.4-0.8-0.8c0-0.4,0.4-0.8,0.8-0.8
		C204,72.3,204.4,72.6,204.4,73.1"/>
	<path class="st1" d="M208.7,1.9c0,0.4-0.4,0.8-0.8,0.8s-0.8-0.4-0.8-0.8c0-0.4,0.4-0.8,0.8-0.8S208.7,1.5,208.7,1.9"/>
	<path class="st1" d="M211.5,3.8c0,0.4-0.4,0.8-0.8,0.8c-0.4,0-0.8-0.4-0.8-0.8c0-0.4,0.4-0.8,0.8-0.8C211.1,3,211.5,3.4,211.5,3.8"
		/>
	<path class="st1" d="M203.6,1.6c0,0.4-0.4,0.8-0.8,0.8c-0.4,0-0.8-0.4-0.8-0.8s0.4-0.8,0.8-0.8C203.3,0.8,203.6,1.2,203.6,1.6"/>
	<path class="st1" d="M208.7,4.3c0,0.4-0.4,0.8-0.8,0.8c-0.5,0-0.8-0.4-0.8-0.8c0-0.4,0.4-0.8,0.8-0.8
		C208.4,3.4,208.7,3.8,208.7,4.3"/>
	<path class="st1" d="M200.6,2.5c0,0.4-0.4,0.8-0.8,0.8c-0.4,0-0.8-0.4-0.8-0.8c0-0.4,0.4-0.8,0.8-0.8C200.3,1.6,200.6,2,200.6,2.5"
		/>
	<path class="st1" d="M201.5,5.7c0,0.4-0.4,0.8-0.8,0.8c-0.4,0-0.8-0.4-0.8-0.8c0-0.4,0.4-0.8,0.8-0.8
		C201.2,4.9,201.5,5.3,201.5,5.7"/>
	<path class="st1" d="M201.8,0.9c0,0.4-0.4,0.8-0.8,0.8c-0.4,0-0.8-0.4-0.8-0.8c0-0.4,0.4-0.8,0.8-0.8
		C201.4,0.1,201.8,0.5,201.8,0.9"/>
	<path class="st1" d="M197,9.2c0,0.4-0.4,0.8-0.8,0.8c-0.4,0-0.8-0.4-0.8-0.8c0-0.4,0.4-0.8,0.8-0.8C196.6,8.4,197,8.7,197,9.2"/>
	<path class="st1" d="M193,3.8c0,0.4-0.4,0.8-0.8,0.8c-0.4,0-0.8-0.4-0.8-0.8c0-0.4,0.4-0.8,0.8-0.8C192.7,3,193,3.4,193,3.8"/>
	<path class="st1" d="M191.9,2.9c0,0.4-0.4,0.8-0.8,0.8c-0.4,0-0.8-0.4-0.8-0.8c0-0.4,0.4-0.8,0.8-0.8
		C191.5,2.1,191.9,2.4,191.9,2.9"/>
	<path class="st1" d="M192.6,5.8c0,0.4-0.4,0.8-0.8,0.8c-0.4,0-0.8-0.4-0.8-0.8c0-0.4,0.4-0.8,0.8-0.8C192.2,5,192.6,5.4,192.6,5.8"
		/>
	<path class="st1" d="M191.9,5.7c0,0.4-0.4,0.8-0.8,0.8c-0.4,0-0.8-0.4-0.8-0.8c0-0.4,0.4-0.8,0.8-0.8
		C191.5,4.8,191.9,5.2,191.9,5.7"/>
	<path class="st1" d="M197.3,9.3c0,0.4-0.4,0.8-0.8,0.8c-0.4,0-0.8-0.4-0.8-0.8c0-0.4,0.4-0.8,0.8-0.8C197,8.5,197.3,8.9,197.3,9.3"
		/>
	<path class="st1" d="M192.1,6.8c0,0.4-0.4,0.8-0.8,0.8s-0.8-0.4-0.8-0.8c0-0.4,0.4-0.8,0.8-0.8S192.1,6.4,192.1,6.8"/>
	<path class="st1" d="M197.8,8.8c0,0.4-0.4,0.8-0.8,0.8c-0.4,0-0.8-0.4-0.8-0.8c0-0.4,0.4-0.8,0.8-0.8C197.4,8,197.8,8.4,197.8,8.8"
		/>
	<path class="st1" d="M189.8,3.6c0,0.4-0.4,0.8-0.8,0.8c-0.4,0-0.8-0.4-0.8-0.8c0-0.4,0.4-0.8,0.8-0.8
		C189.5,2.8,189.8,3.1,189.8,3.6"/>
	<path class="st1" d="M188.8,11.6c0,0.4-0.4,0.8-0.8,0.8c-0.4,0-0.8-0.4-0.8-0.8c0-0.4,0.4-0.8,0.8-0.8
		C188.5,10.8,188.8,11.1,188.8,11.6"/>
	<path class="st1" d="M188.8,10.5c0,0.4-0.4,0.8-0.8,0.8c-0.4,0-0.8-0.4-0.8-0.8c0-0.4,0.4-0.8,0.8-0.8
		C188.4,9.6,188.8,10,188.8,10.5"/>
	<path class="st1" d="M189.2,10.6c0,0.4-0.4,0.8-0.8,0.8c-0.4,0-0.8-0.4-0.8-0.8c0-0.4,0.4-0.8,0.8-0.8
		C188.9,9.8,189.2,10.2,189.2,10.6"/>
	<path class="st1" d="M190.3,7.5c0,0.4-0.4,0.8-0.8,0.8c-0.4,0-0.8-0.4-0.8-0.8c0-0.4,0.4-0.8,0.8-0.8
		C189.9,6.7,190.3,7.1,190.3,7.5"/>
	<path class="st1" d="M207.7,1.7c0,0.4-0.4,0.8-0.8,0.8c-0.4,0-0.8-0.4-0.8-0.8c0-0.4,0.4-0.8,0.8-0.8
		C207.3,0.9,207.7,1.3,207.7,1.7"/>
	<path class="st1" d="M187.8,16.5c0,0.4-0.4,0.8-0.8,0.8c-0.4,0-0.8-0.4-0.8-0.8c0-0.4,0.4-0.8,0.8-0.8
		C187.5,15.7,187.8,16,187.8,16.5"/>
	<path class="st1" d="M195.5,13.2c0,0.4-0.4,0.8-0.8,0.8c-0.4,0-0.8-0.4-0.8-0.8c0-0.4,0.4-0.8,0.8-0.8
		C195.1,12.3,195.5,12.7,195.5,13.2"/>
	<path class="st1" d="M192.4,6.6c0,0.4-0.4,0.8-0.8,0.8c-0.4,0-0.8-0.4-0.8-0.8c0-0.4,0.4-0.8,0.8-0.8
		C192.1,5.8,192.4,6.2,192.4,6.6"/>
	<path class="st1" d="M180.9,10c0,0.4-0.4,0.8-0.8,0.8c-0.4,0-0.8-0.4-0.8-0.8c0-0.4,0.4-0.8,0.8-0.8C180.6,9.2,180.9,9.6,180.9,10"
		/>
	<path class="st1" d="M178.4,9c0,0.4-0.4,0.8-0.8,0.8c-0.4,0-0.8-0.4-0.8-0.8c0-0.4,0.4-0.8,0.8-0.8C178,8.2,178.4,8.5,178.4,9"/>
	<path class="st1" d="M186.7,9.4c0,0.4-0.4,0.8-0.8,0.8c-0.4,0-0.8-0.4-0.8-0.8c0-0.4,0.4-0.8,0.8-0.8
		C186.3,8.6,186.7,8.9,186.7,9.4"/>
	<path class="st1" d="M186.5,15.4c0,0.4-0.4,0.8-0.8,0.8c-0.4,0-0.8-0.4-0.8-0.8c0-0.4,0.4-0.8,0.8-0.8
		C186.2,14.6,186.5,15,186.5,15.4"/>
	<path class="st1" d="M175.4,13.6c0,0.4-0.4,0.8-0.8,0.8c-0.4,0-0.8-0.4-0.8-0.8c0-0.4,0.4-0.8,0.8-0.8
		C175,12.8,175.4,13.2,175.4,13.6"/>
	<path class="st1" d="M181.3,11.9c0,0.4-0.4,0.8-0.8,0.8c-0.4,0-0.8-0.4-0.8-0.8c0-0.4,0.4-0.8,0.8-0.8
		C180.9,11.1,181.3,11.4,181.3,11.9"/>
	<path class="st1" d="M179.2,19.1c0,0.4-0.4,0.8-0.8,0.8c-0.4,0-0.8-0.4-0.8-0.8c0-0.4,0.4-0.8,0.8-0.8
		C178.8,18.2,179.2,18.6,179.2,19.1"/>
	<path class="st1" d="M165.5,32.2c0,0.4-0.4,0.8-0.8,0.8c-0.4,0-0.8-0.4-0.8-0.8c0-0.4,0.4-0.8,0.8-0.8
		C165.1,31.4,165.5,31.8,165.5,32.2"/>
	<path class="st1" d="M160.7,28.9c0,0.4-0.4,0.8-0.8,0.8c-0.4,0-0.8-0.4-0.8-0.8c0-0.4,0.4-0.8,0.8-0.8
		C160.3,28.1,160.7,28.5,160.7,28.9"/>
	<path class="st1" d="M164.7,24.5c0,0.4-0.4,0.8-0.8,0.8c-0.4,0-0.8-0.4-0.8-0.8c0-0.4,0.4-0.8,0.8-0.8
		C164.3,23.7,164.7,24,164.7,24.5"/>
	<path class="st1" d="M165.2,35.2c0,0.4-0.4,0.8-0.8,0.8c-0.4,0-0.8-0.4-0.8-0.8c0-0.4,0.4-0.8,0.8-0.8
		C164.8,34.4,165.2,34.7,165.2,35.2"/>
	<path class="st1" d="M164.7,29.1c0,0.4-0.4,0.8-0.8,0.8c-0.4,0-0.8-0.4-0.8-0.8c0-0.4,0.4-0.8,0.8-0.8
		C164.4,28.2,164.7,28.6,164.7,29.1"/>
	<path class="st1" d="M162.5,30.5c0,0.4-0.4,0.8-0.8,0.8c-0.4,0-0.8-0.4-0.8-0.8c0-0.4,0.4-0.8,0.8-0.8
		C162.1,29.7,162.5,30.1,162.5,30.5"/>
	<path class="st1" d="M158.6,37.7c0,0.4-0.4,0.8-0.8,0.8c-0.4,0-0.8-0.4-0.8-0.8c0-0.4,0.4-0.8,0.8-0.8
		C158.2,36.9,158.6,37.3,158.6,37.7"/>
	<path class="st1" d="M162.5,39.5c0,0.4-0.4,0.8-0.8,0.8c-0.4,0-0.8-0.4-0.8-0.8c0-0.4,0.4-0.8,0.8-0.8
		C162.1,38.7,162.5,39.1,162.5,39.5"/>
	<path class="st1" d="M166.5,39.1c0,0.4-0.4,0.8-0.8,0.8s-0.8-0.4-0.8-0.8c0-0.4,0.4-0.8,0.8-0.8S166.5,38.7,166.5,39.1"/>
	<path class="st1" d="M156.4,42.7c0,0.5-0.4,0.8-0.8,0.8c-0.4,0-0.8-0.4-0.8-0.8c0-0.4,0.4-0.8,0.8-0.8
		C156,41.9,156.4,42.3,156.4,42.7"/>
	<path class="st1" d="M161.3,36.6c0,0.4-0.4,0.8-0.8,0.8c-0.4,0-0.8-0.4-0.8-0.8c0-0.4,0.4-0.8,0.8-0.8
		C160.9,35.8,161.3,36.2,161.3,36.6"/>
	<path class="st1" d="M159.2,37.2c0,0.4-0.4,0.8-0.8,0.8c-0.4,0-0.8-0.4-0.8-0.8c0-0.4,0.4-0.8,0.8-0.8
		C158.9,36.4,159.2,36.8,159.2,37.2"/>
	<path class="st1" d="M159.1,45.6c0,0.4-0.4,0.8-0.8,0.8c-0.4,0-0.8-0.4-0.8-0.8c0-0.4,0.4-0.8,0.8-0.8
		C158.7,44.7,159.1,45.1,159.1,45.6"/>
	<path class="st1" d="M163.8,44.9c0,0.4-0.4,0.8-0.8,0.8c-0.4,0-0.8-0.4-0.8-0.8c0-0.4,0.4-0.8,0.8-0.8
		C163.4,44.1,163.8,44.4,163.8,44.9"/>
	<path class="st1" d="M156.7,46.5c0,0.4-0.4,0.8-0.8,0.8c-0.4,0-0.8-0.4-0.8-0.8c0-0.4,0.4-0.8,0.8-0.8
		C156.3,45.7,156.7,46.1,156.7,46.5"/>
	<path class="st1" d="M159.5,45.8c0,0.4-0.4,0.8-0.8,0.8c-0.4,0-0.8-0.4-0.8-0.8c0-0.4,0.4-0.8,0.8-0.8
		C159.2,45,159.5,45.3,159.5,45.8"/>
	<path class="st1" d="M160,51.8c0,0.4-0.4,0.8-0.8,0.8c-0.4,0-0.8-0.4-0.8-0.8c0-0.4,0.4-0.8,0.8-0.8C159.6,51,160,51.4,160,51.8"/>
	<path class="st1" d="M158.9,46.6c0,0.4-0.4,0.8-0.8,0.8c-0.4,0-0.8-0.4-0.8-0.8c0-0.4,0.4-0.8,0.8-0.8
		C158.6,45.8,158.9,46.2,158.9,46.6"/>
	<path class="st1" d="M164.4,52.6c0,0.4-0.4,0.8-0.8,0.8c-0.4,0-0.8-0.4-0.8-0.8c0-0.4,0.4-0.8,0.8-0.8
		C164,51.8,164.4,52.2,164.4,52.6"/>
	<path class="st1" d="M156.6,55.8c0,0.4-0.4,0.8-0.8,0.8c-0.4,0-0.8-0.4-0.8-0.8c0-0.4,0.4-0.8,0.8-0.8
		C156.3,54.9,156.6,55.3,156.6,55.8"/>
	<path class="st1" d="M159.5,52.9c0,0.4-0.4,0.8-0.8,0.8c-0.4,0-0.8-0.4-0.8-0.8c0-0.4,0.4-0.8,0.8-0.8
		C159.1,52.1,159.5,52.5,159.5,52.9"/>
	<path class="st1" d="M161.4,55.8c0,0.4-0.4,0.8-0.8,0.8c-0.4,0-0.8-0.4-0.8-0.8c0-0.4,0.4-0.8,0.8-0.8
		C161,55,161.4,55.3,161.4,55.8"/>
	<path class="st1" d="M160.4,61.6c0,0.4-0.4,0.8-0.8,0.8s-0.8-0.4-0.8-0.8c0-0.4,0.4-0.8,0.8-0.8S160.4,61.2,160.4,61.6"/>
	<path class="st1" d="M161.8,60.6c0,0.4-0.4,0.8-0.8,0.8c-0.4,0-0.8-0.4-0.8-0.8c0-0.4,0.4-0.8,0.8-0.8
		C161.4,59.8,161.8,60.1,161.8,60.6"/>
	<path class="st1" d="M159.1,55c0,0.4-0.4,0.8-0.8,0.8c-0.4,0-0.8-0.4-0.8-0.8c0-0.4,0.4-0.8,0.8-0.8
		C158.7,54.2,159.1,54.6,159.1,55"/>
	<path class="st1" d="M162.6,62.5c0,0.4-0.4,0.8-0.8,0.8S161,63,161,62.5c0-0.4,0.4-0.8,0.8-0.8S162.6,62.1,162.6,62.5"/>
	<path class="st1" d="M161.9,61.6c0,0.4-0.4,0.8-0.8,0.8c-0.4,0-0.8-0.4-0.8-0.8c0-0.4,0.4-0.8,0.8-0.8
		C161.5,60.8,161.9,61.2,161.9,61.6"/>
	<path class="st1" d="M159.6,65.7c0,0.4-0.4,0.8-0.8,0.8c-0.4,0-0.8-0.4-0.8-0.8c0-0.4,0.4-0.8,0.8-0.8
		C159.2,64.9,159.6,65.3,159.6,65.7"/>
	<path class="st2" d="M190.4,37.9c0,0.4-0.4,0.8-0.8,0.8c-0.4,0-0.8-0.4-0.8-0.8c0-0.4,0.4-0.8,0.8-0.8
		C190.1,37,190.4,37.4,190.4,37.9"/>
	<path class="st2" d="M189.3,44.8c0,0.4-0.4,0.8-0.8,0.8c-0.4,0-0.8-0.4-0.8-0.8c0-0.4,0.4-0.8,0.8-0.8
		C188.9,44,189.3,44.4,189.3,44.8"/>
	<path class="st2" d="M189.5,41.7c0,0.4-0.4,0.8-0.8,0.8c-0.4,0-0.8-0.4-0.8-0.8c0-0.4,0.4-0.8,0.8-0.8
		C189.1,40.9,189.5,41.2,189.5,41.7"/>
	<path class="st2" d="M191.2,43.8c0,0.4-0.4,0.8-0.8,0.8c-0.5,0-0.8-0.4-0.8-0.8s0.4-0.8,0.8-0.8C190.8,43,191.2,43.3,191.2,43.8"/>
	<path class="st2" d="M197.1,47.3c0,0.4-0.4,0.8-0.8,0.8c-0.4,0-0.8-0.4-0.8-0.8c0-0.4,0.4-0.8,0.8-0.8
		C196.7,46.5,197.1,46.9,197.1,47.3"/>
	<path class="st2" d="M199.3,38c0,0.4-0.4,0.8-0.8,0.8c-0.4,0-0.8-0.4-0.8-0.8c0-0.4,0.4-0.8,0.8-0.8C199,37.2,199.3,37.6,199.3,38"
		/>
	<path class="st2" d="M199.4,46.9c0,0.4-0.4,0.8-0.8,0.8c-0.4,0-0.8-0.4-0.8-0.8c0-0.4,0.4-0.8,0.8-0.8
		C199,46.1,199.4,46.5,199.4,46.9"/>
	<path class="st2" d="M196.7,41.1c0,0.4-0.4,0.8-0.8,0.8s-0.8-0.4-0.8-0.8c0-0.4,0.4-0.8,0.8-0.8S196.7,40.6,196.7,41.1"/>
	<path class="st2" d="M196.9,47.9c0,0.4-0.4,0.8-0.8,0.8c-0.4,0-0.8-0.4-0.8-0.8c0-0.4,0.4-0.8,0.8-0.8
		C196.5,47.1,196.9,47.5,196.9,47.9"/>
	<path class="st2" d="M206.9,46.6c0,0.4-0.4,0.8-0.8,0.8c-0.5,0-0.8-0.4-0.8-0.8c0-0.4,0.4-0.8,0.8-0.8
		C206.5,45.8,206.9,46.2,206.9,46.6"/>
	<path class="st2" d="M203.6,45.7c0,0.4-0.4,0.8-0.8,0.8c-0.4,0-0.8-0.4-0.8-0.8c0-0.4,0.4-0.8,0.8-0.8
		C203.2,44.9,203.6,45.3,203.6,45.7"/>
	<path class="st2" d="M200.5,50.7c0,0.4-0.4,0.8-0.8,0.8c-0.5,0-0.8-0.4-0.8-0.8c0-0.4,0.4-0.8,0.8-0.8
		C200.2,49.9,200.5,50.2,200.5,50.7"/>
	<path class="st2" d="M199.7,45.9c0,0.4-0.4,0.8-0.8,0.8c-0.4,0-0.8-0.4-0.8-0.8c0-0.4,0.4-0.8,0.8-0.8
		C199.3,45.1,199.7,45.5,199.7,45.9"/>
	<path class="st2" d="M201.4,40.4c0,0.4-0.4,0.8-0.8,0.8c-0.4,0-0.8-0.4-0.8-0.8c0-0.4,0.4-0.8,0.8-0.8
		C201.1,39.6,201.4,40,201.4,40.4"/>
	<path class="st2" d="M201.1,41.1c0,0.4-0.4,0.8-0.8,0.8c-0.4,0-0.8-0.4-0.8-0.8c0-0.4,0.4-0.8,0.8-0.8
		C200.7,40.3,201.1,40.6,201.1,41.1"/>
	<path class="st2" d="M198.3,45.3c0,0.4-0.4,0.8-0.8,0.8c-0.4,0-0.8-0.4-0.8-0.8c0-0.4,0.4-0.8,0.8-0.8
		C197.9,44.5,198.3,44.9,198.3,45.3"/>
	<path class="st2" d="M205.1,45.9c0,0.4-0.4,0.8-0.8,0.8c-0.4,0-0.8-0.4-0.8-0.8c0-0.4,0.4-0.8,0.8-0.8
		C204.8,45.1,205.1,45.5,205.1,45.9"/>
	<path class="st2" d="M205,44.1c0,0.4-0.4,0.8-0.8,0.8c-0.4,0-0.8-0.4-0.8-0.8c0-0.4,0.4-0.8,0.8-0.8C204.6,43.3,205,43.7,205,44.1"
		/>
	<path class="st2" d="M207.9,43.5c0,0.4-0.4,0.8-0.8,0.8c-0.4,0-0.8-0.4-0.8-0.8c0-0.4,0.4-0.8,0.8-0.8
		C207.6,42.7,207.9,43,207.9,43.5"/>
	<path class="st2" d="M201.3,52.5c0,0.4-0.4,0.8-0.8,0.8c-0.4,0-0.8-0.4-0.8-0.8c0-0.4,0.4-0.8,0.8-0.8
		C201,51.7,201.3,52,201.3,52.5"/>
	<path class="st2" d="M208.1,48.4c0,0.4-0.4,0.8-0.8,0.8c-0.4,0-0.8-0.4-0.8-0.8c0-0.4,0.4-0.8,0.8-0.8
		C207.7,47.6,208.1,48,208.1,48.4"/>
	<path class="st2" d="M210.5,49.1c0,0.4-0.4,0.8-0.8,0.8c-0.4,0-0.8-0.4-0.8-0.8c0-0.4,0.4-0.8,0.8-0.8
		C210.1,48.3,210.5,48.7,210.5,49.1"/>
	<path class="st2" d="M204.6,47c0,0.4-0.4,0.8-0.8,0.8s-0.8-0.4-0.8-0.8c0-0.4,0.4-0.8,0.8-0.8S204.6,46.5,204.6,47"/>
	<path class="st2" d="M202.5,51.8c0,0.4-0.4,0.8-0.8,0.8c-0.5,0-0.8-0.4-0.8-0.8c0-0.4,0.4-0.8,0.8-0.8
		C202.1,51,202.5,51.4,202.5,51.8"/>
	<path class="st2" d="M208.3,53.5c0,0.4-0.4,0.8-0.8,0.8c-0.4,0-0.8-0.4-0.8-0.8c0-0.4,0.4-0.8,0.8-0.8
		C207.9,52.7,208.3,53.1,208.3,53.5"/>
	<path class="st2" d="M212.3,50.4c0,0.4-0.4,0.8-0.8,0.8c-0.4,0-0.8-0.4-0.8-0.8c0-0.4,0.4-0.8,0.8-0.8
		C211.9,49.6,212.3,49.9,212.3,50.4"/>
	<path class="st2" d="M207.9,52.2c0,0.4-0.4,0.8-0.8,0.8c-0.4,0-0.8-0.4-0.8-0.8c0-0.4,0.4-0.8,0.8-0.8
		C207.5,51.4,207.9,51.8,207.9,52.2"/>
	<path class="st2" d="M213.4,47.1c0,0.4-0.4,0.8-0.8,0.8c-0.4,0-0.8-0.4-0.8-0.8c0-0.4,0.4-0.8,0.8-0.8
		C213,46.3,213.4,46.7,213.4,47.1"/>
	<path class="st2" d="M213.4,53.3c0,0.4-0.4,0.8-0.8,0.8c-0.4,0-0.8-0.4-0.8-0.8c0-0.4,0.4-0.8,0.8-0.8
		C213,52.5,213.4,52.8,213.4,53.3"/>
	<path class="st2" d="M214.1,57.2c0,0.4-0.4,0.8-0.8,0.8c-0.4,0-0.8-0.4-0.8-0.8c0-0.4,0.4-0.8,0.8-0.8
		C213.7,56.4,214.1,56.7,214.1,57.2"/>
	<path class="st2" d="M212.3,50.9c0,0.4-0.4,0.8-0.8,0.8c-0.4,0-0.8-0.4-0.8-0.8c0-0.4,0.4-0.8,0.8-0.8
		C212,50.1,212.3,50.5,212.3,50.9"/>
	<path class="st2" d="M210.7,51.5c0,0.4-0.4,0.8-0.8,0.8c-0.4,0-0.8-0.4-0.8-0.8c0-0.4,0.4-0.8,0.8-0.8
		C210.4,50.7,210.7,51.1,210.7,51.5"/>
	<path class="st2" d="M213.7,58.6c0,0.4-0.4,0.8-0.8,0.8c-0.4,0-0.8-0.4-0.8-0.8c0-0.4,0.4-0.8,0.8-0.8
		C213.4,57.7,213.7,58.1,213.7,58.6"/>
	<path class="st2" d="M220.8,61.6c0,0.4-0.4,0.8-0.8,0.8c-0.4,0-0.8-0.4-0.8-0.8c0-0.4,0.4-0.8,0.8-0.8
		C220.5,60.8,220.8,61.2,220.8,61.6"/>
	<path class="st2" d="M218.4,60.4c0,0.4-0.4,0.8-0.8,0.8c-0.4,0-0.8-0.4-0.8-0.8c0-0.4,0.4-0.8,0.8-0.8
		C218,59.6,218.4,59.9,218.4,60.4"/>
	<path class="st2" d="M217.1,61.1c0,0.4-0.4,0.8-0.8,0.8c-0.4,0-0.8-0.4-0.8-0.8c0-0.4,0.4-0.8,0.8-0.8
		C216.8,60.2,217.1,60.6,217.1,61.1"/>
	<path class="st2" d="M223.9,57.4c0,0.4-0.4,0.8-0.8,0.8c-0.4,0-0.8-0.4-0.8-0.8c0-0.4,0.4-0.8,0.8-0.8
		C223.5,56.6,223.9,56.9,223.9,57.4"/>
	<path class="st2" d="M218.1,56.9c0,0.4-0.4,0.8-0.8,0.8c-0.4,0-0.8-0.4-0.8-0.8c0-0.4,0.4-0.8,0.8-0.8
		C217.7,56.1,218.1,56.4,218.1,56.9"/>
	<path class="st2" d="M221.9,60.8c0,0.4-0.4,0.8-0.8,0.8c-0.4,0-0.8-0.4-0.8-0.8c0-0.4,0.4-0.8,0.8-0.8
		C221.5,60,221.9,60.3,221.9,60.8"/>
	<path class="st2" d="M224,59.1c0,0.4-0.4,0.8-0.8,0.8c-0.4,0-0.8-0.4-0.8-0.8c0-0.4,0.4-0.8,0.8-0.8C223.6,58.3,224,58.6,224,59.1"
		/>
	<path class="st2" d="M221.7,60.1c0,0.4-0.4,0.8-0.8,0.8c-0.4,0-0.8-0.4-0.8-0.8c0-0.4,0.4-0.8,0.8-0.8
		C221.4,59.3,221.7,59.6,221.7,60.1"/>
	<path class="st2" d="M221.7,59.2c0,0.4-0.4,0.8-0.8,0.8c-0.4,0-0.8-0.4-0.8-0.8c0-0.4,0.4-0.8,0.8-0.8
		C221.3,58.4,221.7,58.8,221.7,59.2"/>
	<path class="st2" d="M224.2,68.1c0,0.4-0.4,0.8-0.8,0.8c-0.4,0-0.8-0.4-0.8-0.8c0-0.4,0.4-0.8,0.8-0.8
		C223.9,67.3,224.2,67.6,224.2,68.1"/>
	<path class="st2" d="M222.9,66.4c0,0.4-0.4,0.8-0.8,0.8c-0.4,0-0.8-0.4-0.8-0.8c0-0.4,0.4-0.8,0.8-0.8
		C222.5,65.6,222.9,66,222.9,66.4"/>
	<path class="st2" d="M230,68.1c0,0.4-0.4,0.8-0.8,0.8c-0.4,0-0.8-0.4-0.8-0.8c0-0.4,0.4-0.8,0.8-0.8C229.6,67.3,230,67.6,230,68.1"
		/>
	<path class="st2" d="M231.2,64.8c0,0.4-0.4,0.8-0.8,0.8c-0.4,0-0.8-0.4-0.8-0.8c0-0.4,0.4-0.8,0.8-0.8
		C230.8,63.9,231.2,64.3,231.2,64.8"/>
	<path class="st2" d="M223.2,71.9c0,0.4-0.4,0.8-0.8,0.8c-0.4,0-0.8-0.4-0.8-0.8c0-0.4,0.4-0.8,0.8-0.8
		C222.9,71.1,223.2,71.4,223.2,71.9"/>
	<path class="st2" d="M228.8,64.1c0,0.4-0.4,0.8-0.8,0.8c-0.4,0-0.8-0.4-0.8-0.8c0-0.4,0.4-0.8,0.8-0.8
		C228.5,63.3,228.8,63.7,228.8,64.1"/>
	<path class="st2" d="M230.6,72c0,0.4-0.4,0.8-0.8,0.8c-0.4,0-0.8-0.4-0.8-0.8c0-0.4,0.4-0.8,0.8-0.8
		C230.3,71.2,230.6,71.6,230.6,72"/>
	<path class="st2" d="M230.6,68c0,0.4-0.4,0.8-0.8,0.8S229,68.4,229,68c0-0.4,0.4-0.8,0.8-0.8S230.6,67.5,230.6,68"/>
	<path class="st2" d="M227,70.4c0,0.4-0.4,0.8-0.8,0.8c-0.4,0-0.8-0.4-0.8-0.8c0-0.4,0.4-0.8,0.8-0.8C226.6,69.6,227,70,227,70.4"/>
	<path class="st2" d="M225.1,64.8c0,0.4-0.4,0.8-0.8,0.8c-0.4,0-0.8-0.4-0.8-0.8s0.4-0.8,0.8-0.8C224.7,64,225.1,64.4,225.1,64.8"/>
	<path class="st2" d="M230.7,74.8c0,0.4-0.4,0.8-0.8,0.8c-0.4,0-0.8-0.4-0.8-0.8c0-0.4,0.4-0.8,0.8-0.8
		C230.3,74,230.7,74.3,230.7,74.8"/>
	<path class="st2" d="M229.1,72c0,0.4-0.4,0.8-0.8,0.8c-0.4,0-0.8-0.4-0.8-0.8c0-0.4,0.4-0.8,0.8-0.8
		C228.8,71.2,229.1,71.6,229.1,72"/>
	<path class="st2" d="M230.1,75.7c0,0.4-0.4,0.8-0.8,0.8c-0.4,0-0.8-0.4-0.8-0.8c0-0.4,0.4-0.8,0.8-0.8
		C229.7,74.9,230.1,75.3,230.1,75.7"/>
	<path class="st2" d="M224.7,74.3c0,0.4-0.4,0.8-0.8,0.8c-0.4,0-0.8-0.4-0.8-0.8c0-0.4,0.4-0.8,0.8-0.8
		C224.3,73.5,224.7,73.8,224.7,74.3"/>
	<path class="st2" d="M224.6,70.7c0,0.4-0.4,0.8-0.8,0.8c-0.4,0-0.8-0.4-0.8-0.8c0-0.4,0.4-0.8,0.8-0.8
		C224.3,69.9,224.6,70.3,224.6,70.7"/>
	<path class="st2" d="M231.2,73.3c0,0.4-0.4,0.8-0.8,0.8c-0.4,0-0.8-0.4-0.8-0.8c0-0.4,0.4-0.8,0.8-0.8
		C230.8,72.5,231.2,72.9,231.2,73.3"/>
	<path class="st2" d="M230.4,78.8c0,0.4-0.4,0.8-0.8,0.8c-0.4,0-0.8-0.4-0.8-0.8c0-0.4,0.4-0.8,0.8-0.8
		C230,78,230.4,78.4,230.4,78.8"/>
	<path class="st2" d="M227.5,77.8c0,0.5-0.4,0.8-0.8,0.8c-0.4,0-0.8-0.4-0.8-0.8c0-0.4,0.4-0.8,0.8-0.8
		C227.2,77,227.5,77.4,227.5,77.8"/>
	<path class="st2" d="M225.1,74.8c0,0.4-0.4,0.8-0.8,0.8s-0.8-0.4-0.8-0.8c0-0.4,0.4-0.8,0.8-0.8S225.1,74.3,225.1,74.8"/>
	<path class="st2" d="M226.4,73.4c0,0.5-0.4,0.8-0.8,0.8c-0.4,0-0.8-0.4-0.8-0.8c0-0.4,0.4-0.8,0.8-0.8
		C226,72.6,226.4,73,226.4,73.4"/>
	<path class="st2" d="M226.3,82.8c0,0.4-0.4,0.8-0.8,0.8c-0.4,0-0.8-0.4-0.8-0.8c0-0.4,0.4-0.8,0.8-0.8
		C225.9,82,226.3,82.4,226.3,82.8"/>
	<path class="st2" d="M224.3,75.4c0,0.4-0.4,0.8-0.8,0.8c-0.4,0-0.8-0.4-0.8-0.8c0-0.4,0.4-0.8,0.8-0.8
		C223.9,74.6,224.3,74.9,224.3,75.4"/>
	<path class="st2" d="M228.3,75.2c0,0.4-0.4,0.8-0.8,0.8c-0.4,0-0.8-0.4-0.8-0.8c0-0.4,0.4-0.8,0.8-0.8
		C227.9,74.4,228.3,74.7,228.3,75.2"/>
	<path class="st2" d="M234.1,78.8c0,0.4-0.4,0.8-0.8,0.8c-0.4,0-0.8-0.4-0.8-0.8c0-0.4,0.4-0.8,0.8-0.8
		C233.7,78,234.1,78.4,234.1,78.8"/>
	<path class="st2" d="M228.6,76.9c0,0.4-0.4,0.8-0.8,0.8s-0.8-0.4-0.8-0.8c0-0.4,0.4-0.8,0.8-0.8S228.6,76.5,228.6,76.9"/>
	<path class="st2" d="M234.2,80.9c0,0.4-0.4,0.8-0.8,0.8c-0.4,0-0.8-0.4-0.8-0.8c0-0.4,0.4-0.8,0.8-0.8
		C233.8,80.1,234.2,80.4,234.2,80.9"/>
	<path class="st2" d="M231.3,86.7c0,0.4-0.4,0.8-0.8,0.8c-0.4,0-0.8-0.4-0.8-0.8c0-0.5,0.4-0.8,0.8-0.8
		C231,85.9,231.3,86.3,231.3,86.7"/>
	<path class="st2" d="M235,79.8c0,0.4-0.4,0.8-0.8,0.8c-0.4,0-0.8-0.4-0.8-0.8c0-0.4,0.4-0.8,0.8-0.8C234.6,79,235,79.4,235,79.8"/>
	<path class="st2" d="M227.6,80.2c0,0.4-0.4,0.8-0.8,0.8c-0.4,0-0.8-0.4-0.8-0.8c0-0.4,0.4-0.8,0.8-0.8
		C227.3,79.4,227.6,79.7,227.6,80.2"/>
	<path class="st2" d="M225,79.9c0,0.4-0.4,0.8-0.8,0.8c-0.5,0-0.8-0.4-0.8-0.8c0-0.4,0.4-0.8,0.8-0.8C224.7,79.1,225,79.5,225,79.9"
		/>
	<path class="st2" d="M227,84.8c0,0.4-0.4,0.8-0.8,0.8c-0.4,0-0.8-0.4-0.8-0.8c0-0.4,0.4-0.8,0.8-0.8C226.6,84,227,84.3,227,84.8"/>
	<path class="st2" d="M231.4,84c0,0.4-0.4,0.8-0.8,0.8c-0.4,0-0.8-0.4-0.8-0.8c0-0.4,0.4-0.8,0.8-0.8C231,83.2,231.4,83.6,231.4,84"
		/>
	<path class="st2" d="M231.7,92.2c0,0.4-0.4,0.8-0.8,0.8c-0.4,0-0.8-0.4-0.8-0.8c0-0.4,0.4-0.8,0.8-0.8
		C231.3,91.4,231.7,91.7,231.7,92.2"/>
	<path class="st2" d="M231.1,91.1c0,0.4-0.4,0.8-0.8,0.8c-0.4,0-0.8-0.4-0.8-0.8c0-0.4,0.4-0.8,0.8-0.8
		C230.7,90.3,231.1,90.6,231.1,91.1"/>
	<path class="st2" d="M230,91.8c0,0.4-0.4,0.8-0.8,0.8c-0.4,0-0.8-0.4-0.8-0.8c0-0.4,0.4-0.8,0.8-0.8C229.6,91,230,91.3,230,91.8"/>
	<path class="st2" d="M228.7,85c0,0.4-0.4,0.8-0.8,0.8c-0.4,0-0.8-0.4-0.8-0.8c0-0.4,0.4-0.8,0.8-0.8
		C228.4,84.2,228.7,84.5,228.7,85"/>
	<path class="st2" d="M227.2,87.8c0,0.4-0.4,0.8-0.8,0.8c-0.4,0-0.8-0.4-0.8-0.8c0-0.4,0.4-0.8,0.8-0.8
		C226.8,87,227.2,87.4,227.2,87.8"/>
	<path class="st2" d="M222.7,88.5c0,0.4-0.4,0.8-0.8,0.8c-0.4,0-0.8-0.4-0.8-0.8c0-0.4,0.4-0.8,0.8-0.8
		C222.3,87.7,222.7,88,222.7,88.5"/>
	<path class="st2" d="M229.5,95.8c0,0.4-0.4,0.8-0.8,0.8c-0.4,0-0.8-0.4-0.8-0.8c0-0.4,0.4-0.8,0.8-0.8
		C229.2,95,229.5,95.3,229.5,95.8"/>
	<path class="st2" d="M224,88.9c0,0.4-0.4,0.8-0.8,0.8c-0.4,0-0.8-0.4-0.8-0.8c0-0.4,0.4-0.8,0.8-0.8C223.6,88.1,224,88.4,224,88.9"
		/>
	<path class="st2" d="M226.4,95.7c0,0.4-0.4,0.8-0.8,0.8c-0.4,0-0.8-0.4-0.8-0.8c0-0.4,0.4-0.8,0.8-0.8
		C226,94.9,226.4,95.3,226.4,95.7"/>
	<path class="st2" d="M227.6,100.9c0,0.4-0.4,0.8-0.8,0.8c-0.4,0-0.8-0.4-0.8-0.8c0-0.4,0.4-0.8,0.8-0.8
		C227.2,100.1,227.6,100.5,227.6,100.9"/>
	<path class="st2" d="M232.1,95.6c0,0.4-0.4,0.8-0.8,0.8c-0.4,0-0.8-0.4-0.8-0.8c0-0.4,0.4-0.8,0.8-0.8
		C231.7,94.8,232.1,95.2,232.1,95.6"/>
	<path class="st2" d="M226.3,95.8c0,0.4-0.4,0.8-0.8,0.8c-0.4,0-0.8-0.4-0.8-0.8c0-0.4,0.4-0.8,0.8-0.8
		C225.9,95,226.3,95.3,226.3,95.8"/>
	<path class="st2" d="M229.2,93.8c0,0.4-0.4,0.8-0.8,0.8c-0.4,0-0.8-0.4-0.8-0.8c0-0.4,0.4-0.8,0.8-0.8
		C228.9,93,229.2,93.4,229.2,93.8"/>
	<path class="st2" d="M231,94.8c0,0.4-0.4,0.8-0.8,0.8c-0.4,0-0.8-0.4-0.8-0.8s0.4-0.8,0.8-0.8C230.6,94,231,94.4,231,94.8"/>
	<path class="st2" d="M225.3,99.9c0,0.4-0.4,0.8-0.8,0.8c-0.4,0-0.8-0.4-0.8-0.8c0-0.4,0.4-0.8,0.8-0.8
		C224.9,99.1,225.3,99.4,225.3,99.9"/>
	<path class="st2" d="M228.8,102.5c0,0.4-0.4,0.8-0.8,0.8c-0.4,0-0.8-0.4-0.8-0.8c0-0.4,0.4-0.8,0.8-0.8
		C228.4,101.7,228.8,102,228.8,102.5"/>
	<path class="st2" d="M222.6,96.1c0,0.4-0.4,0.8-0.8,0.8c-0.4,0-0.8-0.4-0.8-0.8c0-0.4,0.4-0.8,0.8-0.8
		C222.2,95.3,222.6,95.7,222.6,96.1"/>
	<path class="st2" d="M222.2,99.2c0,0.4-0.4,0.8-0.8,0.8c-0.4,0-0.8-0.4-0.8-0.8c0-0.4,0.4-0.8,0.8-0.8
		C221.9,98.4,222.2,98.7,222.2,99.2"/>
	<path class="st2" d="M221.5,95.7c0,0.4-0.4,0.8-0.8,0.8c-0.4,0-0.8-0.4-0.8-0.8c0-0.4,0.4-0.8,0.8-0.8
		C221.1,94.9,221.5,95.2,221.5,95.7"/>
	<path class="st2" d="M218,106.2c0,0.4-0.4,0.8-0.8,0.8c-0.4,0-0.8-0.4-0.8-0.8c0-0.4,0.4-0.8,0.8-0.8
		C217.6,105.4,218,105.8,218,106.2"/>
	<path class="st2" d="M217.2,105.8c0,0.4-0.4,0.8-0.8,0.8c-0.4,0-0.8-0.4-0.8-0.8c0-0.4,0.4-0.8,0.8-0.8
		C216.8,105,217.2,105.3,217.2,105.8"/>
	<path class="st2" d="M218.9,107.8c0,0.4-0.4,0.8-0.8,0.8c-0.4,0-0.8-0.4-0.8-0.8c0-0.4,0.4-0.8,0.8-0.8
		C218.6,107,218.9,107.4,218.9,107.8"/>
	<path class="st2" d="M214.2,106.2c0,0.4-0.4,0.8-0.8,0.8c-0.4,0-0.8-0.4-0.8-0.8c0-0.4,0.4-0.8,0.8-0.8
		C213.9,105.4,214.2,105.8,214.2,106.2"/>
	<path class="st2" d="M217.1,109.8c0,0.4-0.4,0.8-0.8,0.8c-0.4,0-0.8-0.4-0.8-0.8c0-0.4,0.4-0.8,0.8-0.8
		C216.7,109,217.1,109.4,217.1,109.8"/>
	<path class="st2" d="M214.5,111.2c0,0.4-0.4,0.8-0.8,0.8c-0.4,0-0.8-0.4-0.8-0.8c0-0.4,0.4-0.8,0.8-0.8
		C214.2,110.3,214.5,110.7,214.5,111.2"/>
	<path class="st2" d="M211.9,111.8c0,0.4-0.4,0.8-0.8,0.8c-0.4,0-0.8-0.4-0.8-0.8c0-0.4,0.4-0.8,0.8-0.8
		C211.6,111,211.9,111.4,211.9,111.8"/>
	<path class="st2" d="M220.1,109c0,0.4-0.4,0.8-0.8,0.8c-0.4,0-0.8-0.4-0.8-0.8c0-0.4,0.4-0.8,0.8-0.8
		C219.7,108.2,220.1,108.6,220.1,109"/>
	<path class="st2" d="M214.9,106.6c0,0.4-0.4,0.8-0.8,0.8c-0.4,0-0.8-0.4-0.8-0.8c0-0.4,0.4-0.8,0.8-0.8
		C214.5,105.8,214.9,106.2,214.9,106.6"/>
	<path class="st2" d="M211.3,109.9c0,0.5-0.4,0.8-0.8,0.8c-0.4,0-0.8-0.4-0.8-0.8c0-0.4,0.4-0.8,0.8-0.8
		C211,109.1,211.3,109.5,211.3,109.9"/>
	<path class="st2" d="M213.5,105.2c0,0.4-0.4,0.8-0.8,0.8c-0.4,0-0.8-0.4-0.8-0.8c0-0.4,0.4-0.8,0.8-0.8
		C213.1,104.4,213.5,104.8,213.5,105.2"/>
	<path class="st2" d="M218.3,111.7c0,0.4-0.4,0.8-0.8,0.8c-0.4,0-0.8-0.4-0.8-0.8c0-0.4,0.4-0.8,0.8-0.8
		C218,110.9,218.3,111.3,218.3,111.7"/>
	<path class="st2" d="M219.3,112.7c0,0.4-0.4,0.8-0.8,0.8c-0.4,0-0.8-0.4-0.8-0.8c0-0.4,0.4-0.8,0.8-0.8
		C219,111.9,219.3,112.2,219.3,112.7"/>
	<path class="st2" d="M213.2,115.6c0,0.4-0.4,0.8-0.8,0.8c-0.4,0-0.8-0.4-0.8-0.8c0-0.4,0.4-0.8,0.8-0.8
		C212.8,114.7,213.2,115.1,213.2,115.6"/>
	<path class="st2" d="M214.5,110.1c0,0.4-0.4,0.8-0.8,0.8c-0.4,0-0.8-0.4-0.8-0.8c0-0.4,0.4-0.8,0.8-0.8
		C214.1,109.3,214.5,109.7,214.5,110.1"/>
	<path class="st2" d="M210.2,119.9c0,0.4-0.4,0.8-0.8,0.8c-0.4,0-0.8-0.4-0.8-0.8c0-0.4,0.4-0.8,0.8-0.8
		C209.8,119.1,210.2,119.5,210.2,119.9"/>
	<path class="st2" d="M206.2,116.9c0,0.4-0.4,0.8-0.8,0.8c-0.4,0-0.8-0.4-0.8-0.8c0-0.4,0.4-0.8,0.8-0.8
		C205.9,116.1,206.2,116.4,206.2,116.9"/>
	<path class="st2" d="M204.6,117.1c0,0.4-0.4,0.8-0.8,0.8c-0.4,0-0.8-0.4-0.8-0.8c0-0.4,0.4-0.8,0.8-0.8
		C204.2,116.3,204.6,116.7,204.6,117.1"/>
	<path class="st2" d="M205.3,114.2c0,0.4-0.4,0.8-0.8,0.8c-0.4,0-0.8-0.4-0.8-0.8c0-0.4,0.4-0.8,0.8-0.8
		C204.9,113.4,205.3,113.7,205.3,114.2"/>
	<path class="st2" d="M202.8,116c0,0.4-0.4,0.8-0.8,0.8c-0.4,0-0.8-0.4-0.8-0.8c0-0.4,0.4-0.8,0.8-0.8
		C202.4,115.2,202.8,115.6,202.8,116"/>
	<path class="st2" d="M209.4,115.4c0,0.4-0.4,0.8-0.8,0.8c-0.4,0-0.8-0.4-0.8-0.8c0-0.4,0.4-0.8,0.8-0.8
		C209,114.6,209.4,114.9,209.4,115.4"/>
	<path class="st2" d="M208.7,118.5c0,0.4-0.4,0.8-0.8,0.8c-0.4,0-0.8-0.4-0.8-0.8c0-0.4,0.4-0.8,0.8-0.8
		C208.4,117.7,208.7,118.1,208.7,118.5"/>
	<path class="st2" d="M207.5,120.5c0,0.4-0.4,0.8-0.8,0.8c-0.4,0-0.8-0.4-0.8-0.8c0-0.4,0.4-0.8,0.8-0.8
		C207.2,119.7,207.5,120.1,207.5,120.5"/>
	<path class="st2" d="M205.6,115c0,0.4-0.4,0.8-0.8,0.8c-0.4,0-0.8-0.4-0.8-0.8c0-0.4,0.4-0.8,0.8-0.8
		C205.2,114.2,205.6,114.6,205.6,115"/>
	<path class="st2" d="M199.6,123.3c0,0.4-0.4,0.8-0.8,0.8c-0.4,0-0.8-0.4-0.8-0.8c0-0.4,0.4-0.8,0.8-0.8
		C199.2,122.5,199.6,122.8,199.6,123.3"/>
	<path class="st2" d="M201.2,116.1c0,0.4-0.4,0.8-0.8,0.8c-0.4,0-0.8-0.4-0.8-0.8c0-0.4,0.4-0.8,0.8-0.8
		C200.8,115.3,201.2,115.7,201.2,116.1"/>
	<path class="st2" d="M204.5,119.7c0,0.4-0.4,0.8-0.8,0.8c-0.4,0-0.8-0.4-0.8-0.8c0-0.4,0.4-0.8,0.8-0.8
		C204.1,118.8,204.5,119.2,204.5,119.7"/>
	<path class="st2" d="M195.1,119.7c0,0.4-0.4,0.8-0.8,0.8c-0.4,0-0.8-0.4-0.8-0.8c0-0.4,0.4-0.8,0.8-0.8
		C194.7,118.8,195.1,119.2,195.1,119.7"/>
	<path class="st2" d="M203.9,116.7c0,0.4-0.4,0.8-0.8,0.8c-0.4,0-0.8-0.4-0.8-0.8c0-0.4,0.4-0.8,0.8-0.8
		C203.5,115.9,203.9,116.3,203.9,116.7"/>
	<path class="st2" d="M202.8,115.4c0,0.4-0.4,0.8-0.8,0.8c-0.4,0-0.8-0.4-0.8-0.8c0-0.4,0.4-0.8,0.8-0.8
		C202.4,114.6,202.8,114.9,202.8,115.4"/>
	<path class="st2" d="M193.9,124.3c0,0.4-0.4,0.8-0.8,0.8c-0.4,0-0.8-0.4-0.8-0.8c0-0.4,0.4-0.8,0.8-0.8
		C193.5,123.5,193.9,123.9,193.9,124.3"/>
	<path class="st2" d="M195.7,119.8c0,0.4-0.4,0.8-0.8,0.8c-0.4,0-0.8-0.4-0.8-0.8c0-0.4,0.4-0.8,0.8-0.8
		C195.4,119,195.7,119.3,195.7,119.8"/>
	<path class="st2" d="M197.9,117.6c0,0.4-0.4,0.8-0.8,0.8c-0.4,0-0.8-0.4-0.8-0.8c0-0.4,0.4-0.8,0.8-0.8
		C197.6,116.8,197.9,117.2,197.9,117.6"/>
	<path class="st2" d="M196.1,118.2c0,0.4-0.4,0.8-0.8,0.8c-0.4,0-0.8-0.4-0.8-0.8c0-0.4,0.4-0.8,0.8-0.8
		C195.8,117.4,196.1,117.8,196.1,118.2"/>
	<path class="st2" d="M197,123.9c0,0.4-0.4,0.8-0.8,0.8s-0.8-0.4-0.8-0.8c0-0.5,0.4-0.8,0.8-0.8S197,123.4,197,123.9"/>
	<path class="st2" d="M192,126.1c0,0.4-0.4,0.8-0.8,0.8c-0.4,0-0.8-0.4-0.8-0.8c0-0.4,0.4-0.8,0.8-0.8
		C191.6,125.3,192,125.6,192,126.1"/>
	<path class="st2" d="M187,119.9c0,0.4-0.4,0.8-0.8,0.8c-0.4,0-0.8-0.4-0.8-0.8c0-0.4,0.4-0.8,0.8-0.8
		C186.6,119,187,119.4,187,119.9"/>
	<path class="st2" d="M192.9,121.5c0,0.4-0.4,0.8-0.8,0.8c-0.4,0-0.8-0.4-0.8-0.8c0-0.4,0.4-0.8,0.8-0.8
		C192.5,120.7,192.9,121,192.9,121.5"/>
	<path class="st2" d="M188.1,121c0,0.4-0.4,0.8-0.8,0.8c-0.4,0-0.8-0.4-0.8-0.8c0-0.4,0.4-0.8,0.8-0.8
		C187.7,120.2,188.1,120.5,188.1,121"/>
	<path class="st2" d="M192.1,125.6c0,0.4-0.4,0.8-0.8,0.8c-0.4,0-0.8-0.4-0.8-0.8c0-0.4,0.4-0.8,0.8-0.8
		C191.8,124.8,192.1,125.2,192.1,125.6"/>
	<path class="st2" d="M188.6,119.6c0,0.4-0.4,0.8-0.8,0.8c-0.4,0-0.8-0.4-0.8-0.8c0-0.4,0.4-0.8,0.8-0.8
		C188.3,118.8,188.6,119.2,188.6,119.6"/>
	<path class="st2" d="M193.2,44c0,0.4-0.4,0.8-0.8,0.8c-0.4,0-0.8-0.4-0.8-0.8c0-0.4,0.4-0.8,0.8-0.8
		C192.8,43.2,193.2,43.6,193.2,44"/>
	<path class="st2" d="M192.6,37.2c0,0.4-0.4,0.8-0.8,0.8c-0.4,0-0.8-0.4-0.8-0.8s0.4-0.8,0.8-0.8C192.3,36.4,192.6,36.8,192.6,37.2"
		/>
	<path class="st2" d="M192.9,37.1c0,0.4-0.4,0.8-0.8,0.8c-0.4,0-0.8-0.4-0.8-0.8c0-0.4,0.4-0.8,0.8-0.8
		C192.5,36.3,192.9,36.7,192.9,37.1"/>
	<path class="st2" d="M196.2,45.7c0,0.4-0.4,0.8-0.8,0.8c-0.4,0-0.8-0.4-0.8-0.8c0-0.4,0.4-0.8,0.8-0.8
		C195.9,44.9,196.2,45.3,196.2,45.7"/>
	<path class="st2" d="M199,44.1c0,0.4-0.4,0.8-0.8,0.8c-0.4,0-0.8-0.4-0.8-0.8c0-0.4,0.4-0.8,0.8-0.8C198.7,43.3,199,43.6,199,44.1"
		/>
	<path class="st2" d="M194.4,40.8c0,0.4-0.4,0.8-0.8,0.8c-0.4,0-0.8-0.4-0.8-0.8c0-0.4,0.4-0.8,0.8-0.8
		C194,40,194.4,40.3,194.4,40.8"/>
	<path class="st2" d="M198.7,39.2c0,0.4-0.4,0.8-0.8,0.8c-0.4,0-0.8-0.4-0.8-0.8s0.4-0.8,0.8-0.8C198.4,38.4,198.7,38.8,198.7,39.2"
		/>
	<path class="st2" d="M199.4,39.2c0,0.4-0.4,0.8-0.8,0.8c-0.4,0-0.8-0.4-0.8-0.8c0-0.4,0.4-0.8,0.8-0.8
		C199,38.3,199.4,38.7,199.4,39.2"/>
	<path class="st2" d="M196.9,44.8c0,0.4-0.4,0.8-0.8,0.8c-0.4,0-0.8-0.4-0.8-0.8c0-0.4,0.4-0.8,0.8-0.8
		C196.5,43.9,196.9,44.3,196.9,44.8"/>
	<path class="st2" d="M196.4,38c0,0.4-0.4,0.8-0.8,0.8c-0.4,0-0.8-0.4-0.8-0.8c0-0.4,0.4-0.8,0.8-0.8C196,37.2,196.4,37.5,196.4,38"
		/>
	<path class="st2" d="M196.1,40.8c0,0.4-0.4,0.8-0.8,0.8c-0.4,0-0.8-0.4-0.8-0.8c0-0.4,0.4-0.8,0.8-0.8
		C195.8,40,196.1,40.3,196.1,40.8"/>
	<path class="st2" d="M226.3,106.9c0,0.4-0.4,0.8-0.8,0.8c-0.4,0-0.8-0.4-0.8-0.8c0-0.4,0.4-0.8,0.8-0.8
		C226,106.1,226.3,106.5,226.3,106.9"/>
	<path class="st2" d="M229.3,99.3c0,0.4-0.4,0.8-0.8,0.8s-0.8-0.4-0.8-0.8c0-0.4,0.4-0.8,0.8-0.8S229.3,98.9,229.3,99.3"/>
	<path class="st2" d="M232.5,102.7c0,0.4-0.4,0.8-0.8,0.8c-0.4,0-0.8-0.4-0.8-0.8c0-0.4,0.4-0.8,0.8-0.8
		C232.2,101.9,232.5,102.3,232.5,102.7"/>
	<path class="st2" d="M221,103.4c0,0.4-0.4,0.8-0.8,0.8c-0.4,0-0.8-0.4-0.8-0.8c0-0.4,0.4-0.8,0.8-0.8
		C220.7,102.6,221,103,221,103.4"/>
	<path class="st2" d="M224.5,106.2c0,0.4-0.4,0.8-0.8,0.8c-0.4,0-0.8-0.4-0.8-0.8c0-0.4,0.4-0.8,0.8-0.8
		C224.2,105.4,224.5,105.7,224.5,106.2"/>
	<path class="st2" d="M224.4,105.7c0,0.4-0.4,0.8-0.8,0.8c-0.4,0-0.8-0.4-0.8-0.8c0-0.4,0.4-0.8,0.8-0.8
		C224,104.9,224.4,105.2,224.4,105.7"/>
	<path class="st2" d="M226.4,104.4c0,0.5-0.4,0.8-0.8,0.8c-0.4,0-0.8-0.4-0.8-0.8c0-0.4,0.4-0.8,0.8-0.8
		C226,103.6,226.4,103.9,226.4,104.4"/>
	<path class="st2" d="M225.4,109c0,0.4-0.4,0.8-0.8,0.8c-0.4,0-0.8-0.4-0.8-0.8c0-0.4,0.4-0.8,0.8-0.8
		C225,108.2,225.4,108.6,225.4,109"/>
	<path class="st2" d="M220.6,102c0,0.4-0.4,0.8-0.8,0.8s-0.8-0.4-0.8-0.8c0-0.4,0.4-0.8,0.8-0.8S220.6,101.6,220.6,102"/>
	<path class="st2" d="M221.1,107.5c0,0.4-0.4,0.8-0.8,0.8c-0.4,0-0.8-0.4-0.8-0.8c0-0.4,0.4-0.8,0.8-0.8
		C220.7,106.7,221.1,107.1,221.1,107.5"/>
	<path class="st2" d="M216.7,110.6c0,0.4-0.4,0.8-0.8,0.8c-0.4,0-0.8-0.4-0.8-0.8c0-0.4,0.4-0.8,0.8-0.8
		C216.4,109.8,216.7,110.1,216.7,110.6"/>
	<path class="st2" d="M212.4,105.6c0,0.4-0.4,0.8-0.8,0.8c-0.4,0-0.8-0.4-0.8-0.8c0-0.4,0.4-0.8,0.8-0.8
		C212,104.8,212.4,105.1,212.4,105.6"/>
	<path class="st2" d="M217.2,110.2c0,0.4-0.4,0.8-0.8,0.8c-0.4,0-0.8-0.4-0.8-0.8c0-0.4,0.4-0.8,0.8-0.8
		C216.8,109.4,217.2,109.7,217.2,110.2"/>
	<path class="st2" d="M216.9,112c0,0.4-0.4,0.8-0.8,0.8c-0.4,0-0.8-0.4-0.8-0.8c0-0.4,0.4-0.8,0.8-0.8
		C216.6,111.1,216.9,111.5,216.9,112"/>
	<path class="st2" d="M214.3,49.8c0,0.4-0.4,0.8-0.8,0.8c-0.4,0-0.8-0.4-0.8-0.8c0-0.4,0.4-0.8,0.8-0.8
		C213.9,49,214.3,49.4,214.3,49.8"/>
	<path class="st2" d="M210.8,48.3c0,0.4-0.4,0.8-0.8,0.8c-0.4,0-0.8-0.4-0.8-0.8c0-0.4,0.4-0.8,0.8-0.8
		C210.5,47.4,210.8,47.8,210.8,48.3"/>
	<path class="st2" d="M213.5,56.6c0,0.4-0.4,0.8-0.8,0.8c-0.4,0-0.8-0.4-0.8-0.8c0-0.4,0.4-0.8,0.8-0.8
		C213.1,55.8,213.5,56.2,213.5,56.6"/>
	<path class="st2" d="M218.5,51.6c0,0.4-0.4,0.8-0.8,0.8c-0.4,0-0.8-0.4-0.8-0.8c0-0.4,0.4-0.8,0.8-0.8
		C218.2,50.8,218.5,51.2,218.5,51.6"/>
	<path class="st2" d="M221,56.9c0,0.4-0.4,0.8-0.8,0.8c-0.4,0-0.8-0.4-0.8-0.8c0-0.4,0.4-0.8,0.8-0.8C220.7,56.1,221,56.4,221,56.9"
		/>
	<path class="st2" d="M224.1,56.3c0,0.4-0.4,0.8-0.8,0.8c-0.4,0-0.8-0.4-0.8-0.8s0.4-0.8,0.8-0.8C223.7,55.5,224.1,55.9,224.1,56.3"
		/>
	<path class="st2" d="M218.9,61.4c0,0.4-0.4,0.8-0.8,0.8c-0.4,0-0.8-0.4-0.8-0.8c0-0.4,0.4-0.8,0.8-0.8
		C218.6,60.6,218.9,60.9,218.9,61.4"/>
	<path class="st2" d="M223.7,63.1c0,0.4-0.4,0.8-0.8,0.8c-0.4,0-0.8-0.4-0.8-0.8c0-0.4,0.4-0.8,0.8-0.8
		C223.3,62.3,223.7,62.6,223.7,63.1"/>
	<path class="st2" d="M226.2,62.3c0,0.4-0.4,0.8-0.8,0.8c-0.4,0-0.8-0.4-0.8-0.8c0-0.4,0.4-0.8,0.8-0.8
		C225.9,61.5,226.2,61.8,226.2,62.3"/>
	<path class="st2" d="M230.3,58.2c0,0.4-0.4,0.8-0.8,0.8c-0.4,0-0.8-0.4-0.8-0.8c0-0.4,0.4-0.8,0.8-0.8
		C229.9,57.4,230.3,57.7,230.3,58.2"/>
	<path class="st2" d="M232.1,70.4c0,0.4-0.4,0.8-0.8,0.8c-0.4,0-0.8-0.4-0.8-0.8c0-0.4,0.4-0.8,0.8-0.8
		C231.7,69.6,232.1,69.9,232.1,70.4"/>
	<path class="st2" d="M231.2,60c0,0.4-0.4,0.8-0.8,0.8c-0.4,0-0.8-0.4-0.8-0.8c0-0.4,0.4-0.8,0.8-0.8
		C230.9,59.2,231.2,59.6,231.2,60"/>
	<path class="st2" d="M217.1,56.5c0,0.4-0.4,0.8-0.8,0.8c-0.4,0-0.8-0.4-0.8-0.8c0-0.4,0.4-0.8,0.8-0.8
		C216.7,55.7,217.1,56.1,217.1,56.5"/>
	<path class="st2" d="M207.3,52.8c0,0.4-0.4,0.8-0.8,0.8c-0.4,0-0.8-0.4-0.8-0.8c0-0.4,0.4-0.8,0.8-0.8
		C206.9,52,207.3,52.3,207.3,52.8"/>
	<path class="st2" d="M220.8,59.9c0,0.4-0.4,0.8-0.8,0.8c-0.4,0-0.8-0.4-0.8-0.8c0-0.4,0.4-0.8,0.8-0.8
		C220.4,59.1,220.8,59.5,220.8,59.9"/>
	<path class="st2" d="M217.7,65.6c0,0.4-0.4,0.8-0.8,0.8c-0.4,0-0.8-0.4-0.8-0.8c0-0.4,0.4-0.8,0.8-0.8
		C217.4,64.8,217.7,65.2,217.7,65.6"/>
	<path class="st2" d="M223.2,60.1c0,0.4-0.4,0.8-0.8,0.8c-0.4,0-0.8-0.4-0.8-0.8c0-0.4,0.4-0.8,0.8-0.8
		C222.8,59.3,223.2,59.7,223.2,60.1"/>
	<path class="st2" d="M217.2,63.1c0,0.4-0.4,0.8-0.8,0.8c-0.4,0-0.8-0.4-0.8-0.8c0-0.4,0.4-0.8,0.8-0.8
		C216.8,62.3,217.2,62.7,217.2,63.1"/>
	<path class="st2" d="M220.2,65.3c0,0.4-0.4,0.8-0.8,0.8c-0.4,0-0.8-0.4-0.8-0.8c0-0.4,0.4-0.8,0.8-0.8
		C219.9,64.5,220.2,64.9,220.2,65.3"/>
	<path class="st2" d="M222.2,75.3c0,0.4-0.4,0.8-0.8,0.8c-0.4,0-0.8-0.4-0.8-0.8c0-0.4,0.4-0.8,0.8-0.8
		C221.9,74.5,222.2,74.9,222.2,75.3"/>
	<path class="st2" d="M219.9,71.3c0,0.4-0.4,0.8-0.8,0.8c-0.4,0-0.8-0.4-0.8-0.8c0-0.4,0.4-0.8,0.8-0.8
		C219.5,70.5,219.9,70.8,219.9,71.3"/>
	<path class="st2" d="M225.3,76.1c0,0.4-0.4,0.8-0.8,0.8c-0.4,0-0.8-0.4-0.8-0.8c0-0.4,0.4-0.8,0.8-0.8
		C224.9,75.3,225.3,75.6,225.3,76.1"/>
	<path class="st2" d="M223.1,66.3c0,0.4-0.4,0.8-0.8,0.8c-0.4,0-0.8-0.4-0.8-0.8c0-0.4,0.4-0.8,0.8-0.8
		C222.7,65.5,223.1,65.9,223.1,66.3"/>
	<path class="st2" d="M229.3,96.1c0,0.4-0.4,0.8-0.8,0.8c-0.4,0-0.8-0.4-0.8-0.8c0-0.4,0.4-0.8,0.8-0.8
		C228.9,95.3,229.3,95.6,229.3,96.1"/>
	<path class="st2" d="M218.5,97.2c0,0.4-0.4,0.8-0.8,0.8c-0.4,0-0.8-0.4-0.8-0.8c0-0.4,0.4-0.8,0.8-0.8
		C218.1,96.4,218.5,96.7,218.5,97.2"/>
	<path class="st2" d="M224.5,100.4c0,0.4-0.4,0.8-0.8,0.8c-0.4,0-0.8-0.4-0.8-0.8c0-0.4,0.4-0.8,0.8-0.8
		C224.2,99.6,224.5,99.9,224.5,100.4"/>
	<path class="st2" d="M218.4,104.7c0,0.4-0.4,0.8-0.8,0.8c-0.4,0-0.8-0.4-0.8-0.8c0-0.4,0.4-0.8,0.8-0.8
		C218,103.9,218.4,104.2,218.4,104.7"/>
	<path class="st2" d="M219.9,103.4c0,0.4-0.4,0.8-0.8,0.8c-0.4,0-0.8-0.4-0.8-0.8c0-0.4,0.4-0.8,0.8-0.8
		C219.5,102.6,219.9,103,219.9,103.4"/>
	<path class="st2" d="M218.5,101.8c0,0.4-0.4,0.8-0.8,0.8c-0.4,0-0.8-0.4-0.8-0.8c0-0.4,0.4-0.8,0.8-0.8
		C218.1,101,218.5,101.4,218.5,101.8"/>
	<path class="st2" d="M225.1,106.9c0,0.4-0.4,0.8-0.8,0.8c-0.4,0-0.8-0.4-0.8-0.8c0-0.5,0.4-0.8,0.8-0.8
		C224.8,106.1,225.1,106.5,225.1,106.9"/>
	<path class="st2" d="M216.1,103.3c0,0.4-0.4,0.8-0.8,0.8c-0.4,0-0.8-0.4-0.8-0.8c0-0.4,0.4-0.8,0.8-0.8
		C215.7,102.5,216.1,102.8,216.1,103.3"/>
	<path class="st2" d="M217.7,102.9c0,0.4-0.4,0.8-0.8,0.8c-0.4,0-0.8-0.4-0.8-0.8c0-0.4,0.4-0.8,0.8-0.8
		C217.3,102.1,217.7,102.4,217.7,102.9"/>
	<path class="st2" d="M223.8,108.5c0,0.4-0.4,0.8-0.8,0.8c-0.4,0-0.8-0.4-0.8-0.8c0-0.4,0.4-0.8,0.8-0.8
		C223.4,107.7,223.8,108.1,223.8,108.5"/>
	<path class="st2" d="M214.8,109.6c0,0.4-0.4,0.8-0.8,0.8c-0.4,0-0.8-0.4-0.8-0.8c0-0.5,0.4-0.8,0.8-0.8
		C214.4,108.7,214.8,109.1,214.8,109.6"/>
	<path class="st2" d="M215.1,110.7c0,0.4-0.4,0.8-0.8,0.8c-0.4,0-0.8-0.4-0.8-0.8c0-0.4,0.4-0.8,0.8-0.8
		C214.7,109.9,215.1,110.3,215.1,110.7"/>
	<path class="st2" d="M221.5,110.5c0,0.4-0.4,0.8-0.8,0.8c-0.4,0-0.8-0.4-0.8-0.8c0-0.4,0.4-0.8,0.8-0.8
		C221.1,109.7,221.5,110.1,221.5,110.5"/>
	<path class="st2" d="M215.1,104.4c0,0.5-0.4,0.8-0.8,0.8c-0.4,0-0.8-0.4-0.8-0.8c0-0.4,0.4-0.8,0.8-0.8
		C214.7,103.6,215.1,104,215.1,104.4"/>
	<path class="st2" d="M217.9,106.4c0,0.4-0.4,0.8-0.8,0.8c-0.4,0-0.8-0.4-0.8-0.8c0-0.4,0.4-0.8,0.8-0.8
		C217.5,105.6,217.9,106,217.9,106.4"/>
	<path class="st2" d="M213,110.4c0,0.4-0.4,0.8-0.8,0.8c-0.4,0-0.8-0.4-0.8-0.8c0-0.4,0.4-0.8,0.8-0.8
		C212.7,109.6,213,110,213,110.4"/>
	<path class="st2" d="M182.7,124c0,0.4-0.4,0.8-0.8,0.8c-0.4,0-0.8-0.4-0.8-0.8c0-0.4,0.4-0.8,0.8-0.8
		C182.3,123.2,182.7,123.5,182.7,124"/>
	<path class="st2" d="M185.4,123.5c0,0.4-0.4,0.8-0.8,0.8c-0.4,0-0.8-0.4-0.8-0.8c0-0.4,0.4-0.8,0.8-0.8
		C185.1,122.7,185.4,123.1,185.4,123.5"/>
	<path class="st2" d="M188.1,124c0,0.4-0.4,0.8-0.8,0.8c-0.4,0-0.8-0.4-0.8-0.8c0-0.4,0.4-0.8,0.8-0.8
		C187.8,123.2,188.1,123.6,188.1,124"/>
	<path class="st2" d="M186.5,124.2c0,0.4-0.4,0.8-0.8,0.8c-0.4,0-0.8-0.4-0.8-0.8c0-0.4,0.4-0.8,0.8-0.8
		C186.2,123.4,186.5,123.7,186.5,124.2"/>
	<path class="st2" d="M191.8,127c0,0.4-0.4,0.8-0.8,0.8c-0.4,0-0.8-0.4-0.8-0.8c0-0.4,0.4-0.8,0.8-0.8
		C191.5,126.2,191.8,126.5,191.8,127"/>
	<path class="st2" d="M188.7,119.2c0,0.4-0.4,0.8-0.8,0.8c-0.4,0-0.8-0.4-0.8-0.8c0-0.4,0.4-0.8,0.8-0.8
		C188.3,118.3,188.7,118.7,188.7,119.2"/>
	<path class="st2" d="M194,121.7c0,0.4-0.4,0.8-0.8,0.8c-0.4,0-0.8-0.4-0.8-0.8c0-0.4,0.4-0.8,0.8-0.8
		C193.7,120.9,194,121.3,194,121.7"/>
	<path class="st2" d="M198.8,125.6c0,0.4-0.4,0.8-0.8,0.8c-0.4,0-0.8-0.4-0.8-0.8c0-0.4,0.4-0.8,0.8-0.8
		C198.4,124.8,198.8,125.2,198.8,125.6"/>
	<path class="st2" d="M238.2,80.9c0,0.4-0.4,0.8-0.8,0.8c-0.4,0-0.8-0.4-0.8-0.8c0-0.4,0.4-0.8,0.8-0.8
		C237.8,80.1,238.2,80.4,238.2,80.9"/>
	<path class="st2" d="M235.3,86.7c0,0.4-0.4,0.8-0.8,0.8c-0.4,0-0.8-0.4-0.8-0.8c0-0.5,0.4-0.8,0.8-0.8
		C235,85.9,235.3,86.3,235.3,86.7"/>
	<path class="st2" d="M238.9,79.8c0,0.4-0.4,0.8-0.8,0.8c-0.4,0-0.8-0.4-0.8-0.8c0-0.4,0.4-0.8,0.8-0.8
		C238.6,79,238.9,79.4,238.9,79.8"/>
	<path class="st2" d="M235.4,84c0,0.4-0.4,0.8-0.8,0.8c-0.4,0-0.8-0.4-0.8-0.8c0-0.4,0.4-0.8,0.8-0.8C235,83.2,235.4,83.6,235.4,84"
		/>
	<path class="st2" d="M235.6,92.2c0,0.4-0.4,0.8-0.8,0.8c-0.4,0-0.8-0.4-0.8-0.8c0-0.4,0.4-0.8,0.8-0.8
		C235.3,91.4,235.6,91.7,235.6,92.2"/>
	<path class="st2" d="M235.1,91.1c0,0.4-0.4,0.8-0.8,0.8c-0.4,0-0.8-0.4-0.8-0.8c0-0.4,0.4-0.8,0.8-0.8
		C234.7,90.3,235.1,90.6,235.1,91.1"/>
	<path class="st2" d="M227.7,69.7c0,0.4-0.4,0.8-0.8,0.8c-0.4,0-0.8-0.4-0.8-0.8c0-0.4,0.4-0.8,0.8-0.8
		C227.4,68.9,227.7,69.2,227.7,69.7"/>
	<path class="st2" d="M229.4,77.6c0,0.4-0.4,0.8-0.8,0.8c-0.4,0-0.8-0.4-0.8-0.8c0-0.4,0.4-0.8,0.8-0.8
		C229.1,76.8,229.4,77.2,229.4,77.6"/>
	<path class="st2" d="M235.6,68.2c0,0.4-0.4,0.8-0.8,0.8c-0.4,0-0.8-0.4-0.8-0.8c0-0.4,0.4-0.8,0.8-0.8
		C235.2,67.4,235.6,67.8,235.6,68.2"/>
	<path class="st2" d="M232.3,78.2c0,0.4-0.4,0.8-0.8,0.8c-0.4,0-0.8-0.4-0.8-0.8s0.4-0.8,0.8-0.8C231.9,77.4,232.3,77.8,232.3,78.2"
		/>
	<path class="st2" d="M238.4,70.7c0,0.4-0.4,0.8-0.8,0.8c-0.4,0-0.8-0.4-0.8-0.8c0-0.4,0.4-0.8,0.8-0.8
		C238,69.9,238.4,70.3,238.4,70.7"/>
	<path class="st2" d="M233.7,81c0,0.4-0.4,0.8-0.8,0.8c-0.4,0-0.8-0.4-0.8-0.8c0-0.4,0.4-0.8,0.8-0.8
		C233.3,80.2,233.7,80.5,233.7,81"/>
	<path class="st2" d="M234.6,81c0,0.4-0.4,0.8-0.8,0.8c-0.4,0-0.8-0.4-0.8-0.8s0.4-0.8,0.8-0.8C234.2,80.1,234.6,80.5,234.6,81"/>
	<path class="st2" d="M232.4,79.2c0,0.4-0.4,0.8-0.8,0.8c-0.4,0-0.8-0.4-0.8-0.8c0-0.4,0.4-0.8,0.8-0.8
		C232,78.4,232.4,78.8,232.4,79.2"/>
	<path class="st2" d="M240.7,74.7c0,0.4-0.4,0.8-0.8,0.8c-0.4,0-0.8-0.4-0.8-0.8c0-0.4,0.4-0.8,0.8-0.8
		C240.3,73.9,240.7,74.3,240.7,74.7"/>
	<path class="st2" d="M237.6,79.7c0,0.4-0.4,0.8-0.8,0.8c-0.4,0-0.8-0.4-0.8-0.8c0-0.4,0.4-0.8,0.8-0.8
		C237.2,78.9,237.6,79.2,237.6,79.7"/>
	<path class="st2" d="M237.8,78c0,0.4-0.4,0.8-0.8,0.8c-0.4,0-0.8-0.4-0.8-0.8c0-0.4,0.4-0.8,0.8-0.8
		C237.4,77.2,237.8,77.6,237.8,78"/>
	<path class="st2" d="M229.8,79.8c0,0.4-0.4,0.8-0.8,0.8c-0.4,0-0.8-0.4-0.8-0.8c0-0.4,0.4-0.8,0.8-0.8
		C229.5,78.9,229.8,79.3,229.8,79.8"/>
	<path class="st2" d="M239,78.9c0,0.4-0.4,0.8-0.8,0.8c-0.4,0-0.8-0.4-0.8-0.8c0-0.4,0.4-0.8,0.8-0.8C238.7,78.1,239,78.4,239,78.9"
		/>
	<path class="st2" d="M233.6,76.4c0,0.4-0.4,0.8-0.8,0.8c-0.4,0-0.8-0.4-0.8-0.8c0-0.4,0.4-0.8,0.8-0.8
		C233.2,75.5,233.6,75.9,233.6,76.4"/>
	<path class="st2" d="M233.3,80.9c0,0.4-0.4,0.8-0.8,0.8c-0.4,0-0.8-0.4-0.8-0.8c0-0.4,0.4-0.8,0.8-0.8
		C233,80.1,233.3,80.5,233.3,80.9"/>
	<path class="st2" d="M234,81.1c0,0.4-0.4,0.8-0.8,0.8c-0.4,0-0.8-0.4-0.8-0.8c0-0.4,0.4-0.8,0.8-0.8C233.6,80.3,234,80.7,234,81.1"
		/>
	<path class="st2" d="M235.7,84.5c0,0.4-0.4,0.8-0.8,0.8c-0.4,0-0.8-0.4-0.8-0.8c0-0.4,0.4-0.8,0.8-0.8
		C235.4,83.7,235.7,84.1,235.7,84.5"/>
	<path class="st2" d="M235.5,87.8c0,0.4-0.4,0.8-0.8,0.8c-0.4,0-0.8-0.4-0.8-0.8c0-0.4,0.4-0.8,0.8-0.8
		C235.1,87,235.5,87.4,235.5,87.8"/>
	<path class="st2" d="M234.7,99c0,0.4-0.4,0.8-0.8,0.8s-0.8-0.4-0.8-0.8c0-0.4,0.4-0.8,0.8-0.8S234.7,98.5,234.7,99"/>
	<path class="st2" d="M231.7,99c0,0.4-0.4,0.8-0.8,0.8c-0.4,0-0.8-0.4-0.8-0.8c0-0.4,0.4-0.8,0.8-0.8
		C231.4,98.2,231.7,98.6,231.7,99"/>
	<path class="st2" d="M233,101.2c0,0.4-0.4,0.8-0.8,0.8c-0.4,0-0.8-0.4-0.8-0.8c0-0.4,0.4-0.8,0.8-0.8
		C232.7,100.4,233,100.8,233,101.2"/>
	<path class="st2" d="M228.9,94.7c0,0.4-0.4,0.8-0.8,0.8c-0.4,0-0.8-0.4-0.8-0.8c0-0.4,0.4-0.8,0.8-0.8
		C228.5,93.9,228.9,94.2,228.9,94.7"/>
	<path class="st2" d="M226.6,101.6c0,0.4-0.4,0.8-0.8,0.8c-0.4,0-0.8-0.4-0.8-0.8c0-0.4,0.4-0.8,0.8-0.8
		C226.2,100.8,226.6,101.1,226.6,101.6"/>
	<path class="st2" d="M228.1,99.6c0,0.4-0.4,0.8-0.8,0.8c-0.4,0-0.8-0.4-0.8-0.8c0-0.4,0.4-0.8,0.8-0.8
		C227.7,98.8,228.1,99.1,228.1,99.6"/>
	<path class="st2" d="M228.7,103c0,0.4-0.4,0.8-0.8,0.8c-0.4,0-0.8-0.4-0.8-0.8c0-0.4,0.4-0.8,0.8-0.8
		C228.3,102.2,228.7,102.6,228.7,103"/>
	<path class="st2" d="M226.8,96.2c0,0.4-0.4,0.8-0.8,0.8c-0.4,0-0.8-0.4-0.8-0.8c0-0.4,0.4-0.8,0.8-0.8
		C226.5,95.4,226.8,95.8,226.8,96.2"/>
	<path class="st2" d="M226.7,106.2c0,0.4-0.4,0.8-0.8,0.8c-0.4,0-0.8-0.4-0.8-0.8c0-0.4,0.4-0.8,0.8-0.8
		C226.4,105.4,226.7,105.7,226.7,106.2"/>
	<path class="st2" d="M222.8,84.6c0,0.4-0.4,0.8-0.8,0.8s-0.8-0.4-0.8-0.8c0-0.4,0.4-0.8,0.8-0.8S222.8,84.2,222.8,84.6"/>
	<path class="st2" d="M221.6,83.4c0,0.4-0.4,0.8-0.8,0.8c-0.4,0-0.8-0.4-0.8-0.8c0-0.4,0.4-0.8,0.8-0.8
		C221.2,82.6,221.6,83,221.6,83.4"/>
	<path class="st2" d="M231.1,86.6c0,0.4-0.4,0.8-0.8,0.8c-0.4,0-0.8-0.4-0.8-0.8c0-0.4,0.4-0.8,0.8-0.8
		C230.8,85.8,231.1,86.1,231.1,86.6"/>
	<path class="st2" d="M230.2,87.4c0,0.4-0.4,0.8-0.8,0.8c-0.4,0-0.8-0.4-0.8-0.8c0-0.4,0.4-0.8,0.8-0.8
		C229.9,86.6,230.2,87,230.2,87.4"/>
	<path class="st2" d="M230.5,93.3c0,0.4-0.4,0.8-0.8,0.8c-0.4,0-0.8-0.4-0.8-0.8c0-0.4,0.4-0.8,0.8-0.8
		C230.1,92.5,230.5,92.9,230.5,93.3"/>
	<path class="st2" d="M229,88.9c0,0.4-0.4,0.8-0.8,0.8c-0.4,0-0.8-0.4-0.8-0.8c0-0.4,0.4-0.8,0.8-0.8C228.6,88.1,229,88.5,229,88.9"
		/>
	<path class="st2" d="M228.1,97.2c0,0.4-0.4,0.8-0.8,0.8c-0.4,0-0.8-0.4-0.8-0.8c0-0.4,0.4-0.8,0.8-0.8
		C227.8,96.4,228.1,96.8,228.1,97.2"/>
	<path class="st2" d="M228.5,96.6c0,0.4-0.4,0.8-0.8,0.8c-0.4,0-0.8-0.4-0.8-0.8c0-0.4,0.4-0.8,0.8-0.8
		C228.2,95.8,228.5,96.2,228.5,96.6"/>
	<path class="st2" d="M240.4,81.9c0,0.4-0.4,0.8-0.8,0.8c-0.4,0-0.8-0.4-0.8-0.8c0-0.4,0.4-0.8,0.8-0.8
		C240,81.1,240.4,81.5,240.4,81.9"/>
	<path class="st2" d="M238.1,83.9c0,0.4-0.4,0.8-0.8,0.8c-0.4,0-0.8-0.4-0.8-0.8c0-0.4,0.4-0.8,0.8-0.8
		C237.8,83.1,238.1,83.5,238.1,83.9"/>
	<path class="st2" d="M232.4,82.8c0,0.4-0.4,0.8-0.8,0.8c-0.4,0-0.8-0.4-0.8-0.8c0-0.4,0.4-0.8,0.8-0.8
		C232,82,232.4,82.4,232.4,82.8"/>
	<path class="st2" d="M236.5,82.1c0,0.4-0.4,0.8-0.8,0.8c-0.4,0-0.8-0.4-0.8-0.8c0-0.4,0.4-0.8,0.8-0.8
		C236.1,81.3,236.5,81.7,236.5,82.1"/>
	<path class="st2" d="M235.5,91c0,0.4-0.4,0.8-0.8,0.8c-0.4,0-0.8-0.4-0.8-0.8c0-0.4,0.4-0.8,0.8-0.8
		C235.2,90.2,235.5,90.6,235.5,91"/>
	<path class="st2" d="M237.8,90.9c0,0.4-0.4,0.8-0.8,0.8c-0.5,0-0.8-0.4-0.8-0.8c0-0.4,0.4-0.8,0.8-0.8
		C237.5,90.1,237.8,90.5,237.8,90.9"/>
	<path class="st2" d="M227.7,85.6c0,0.4-0.4,0.8-0.8,0.8c-0.4,0-0.8-0.4-0.8-0.8c0-0.4,0.4-0.8,0.8-0.8
		C227.3,84.8,227.7,85.1,227.7,85.6"/>
	<path class="st2" d="M228.6,90c0,0.4-0.4,0.8-0.8,0.8c-0.4,0-0.8-0.4-0.8-0.8c0-0.4,0.4-0.8,0.8-0.8
		C228.3,89.2,228.6,89.5,228.6,90"/>
	<path class="st2" d="M233.8,95.5c0,0.4-0.4,0.8-0.8,0.8c-0.4,0-0.8-0.4-0.8-0.8c0-0.4,0.4-0.8,0.8-0.8
		C233.4,94.7,233.8,95,233.8,95.5"/>
	<path class="st2" d="M226.6,94.6c0,0.4-0.4,0.8-0.8,0.8c-0.4,0-0.8-0.4-0.8-0.8c0-0.4,0.4-0.8,0.8-0.8
		C226.2,93.8,226.6,94.2,226.6,94.6"/>
</g>
</svg>
